<?xml version="1.0" standalone="no"?>
<!DOCTYPE svg PUBLIC "-//W3C//DTD SVG 1.0//EN" "http://www.w3.org/TR/2001/REC-SVG-20010904/DTD/svg10.dtd">
<svg xmlns="http://www.w3.org/2000/svg" xmlns:xlink="http://www.w3.org/1999/xlink" id="body_1" width="700" height="165">

<defs>
        <clipPath  id="1">

            <path clip-rule="evenodd" transform="matrix(1 0 0 1 0 0)"  d="M0 0L520 0L520 160L0 160L0 0z" />        </clipPath>
            <clipPath  id="2">

                <path clip-rule="evenodd" transform="matrix(1 0 0 1 0 0)"  d="M20.83984 0L369.1602 0C 380.668 0 390 7.675781 390 17.14453L390 17.14453L390 120L0 120L0 17.14453C 0 7.675781 9.332031 0 20.83984 0z" />            </clipPath>
                <clipPath  id="3">

                    <path clip-rule="evenodd" transform="matrix(1 0 0 1 0 0)"  d="M0 0L390 0L390 120L0 120L0 0z" />                </clipPath>
</defs>

<g transform="matrix(1.166667 0 0 1 0 0)">
	<g clip-path="url(#1)" >
		<g transform="matrix(1.538461 0 0 1.375 0 0)">
		</g>
        <path transform="matrix(1.538461 0 0 1.375 0 0)"  d="M20.83984 0L369.1602 0C 380.668 0 390 7.675781 390 17.14453L390 17.14453L390 120L0 120L0 17.14453C 0 7.675781 9.332031 0 20.83984 0z" stroke="none" fill="#099114" fill-rule="nonzero" />
		<g clip-path="url(#2)" >
			<g clip-path="url(#3)" >
				<g transform="matrix(1.538461 0 0 1.375 0 0)">
				</g>
                <path transform="matrix(1.538461 0 0 1.375 0 0)"  d="M44.875 -15.46484L50.95703 -10.46094L-2.574219 33.57031L-8.65625 28.56641L44.875 -15.46484z" stroke="none" fill="#F7EFBD" fill-rule="nonzero" />
				<g transform="matrix(1.538461 0 0 1.375 0 0)">
				</g>
                <path transform="matrix(1.538461 0 0 1.375 0 0)"  d="M49.51172 -1.941406L55.59766 3.0625L16.66406 35.08594L10.58203 30.08203L49.51172 -1.941406z" stroke="none" fill="#F7EFBD" fill-rule="nonzero" />
				<g transform="matrix(1.538461 0 0 1.375 0 0)">
				</g>
                <path transform="matrix(1.538461 0 0 1.375 0 0)"  d="M25.42578 -20.45703L31.50781 -15.45313L-7.421875 16.57422L-13.50391 11.57031L25.42578 -20.45703z" stroke="none" fill="#F7EFBD" fill-rule="nonzero" />
				<g transform="matrix(1.538461 0 0 1.375 0 0)">
				</g>
                <path transform="matrix(1.538461 0 0 1.375 0 0)"  d="M93.99609 -15.46484L100.0781 -10.46094L46.54688 33.57031L40.46484 28.56641L93.99609 -15.46484z" stroke="none" fill="#F7EFBD" fill-rule="nonzero" />
				<g transform="matrix(1.538461 0 0 1.375 0 0)">
				</g>
                <path transform="matrix(1.538461 0 0 1.375 0 0)"  d="M98.63672 -1.941406L104.7188 3.0625L65.78906 35.08594L59.70313 30.08203L98.63672 -1.941406z" stroke="none" fill="#F7EFBD" fill-rule="nonzero" />
				<g transform="matrix(1.538461 0 0 1.375 0 0)">
				</g>
                <path transform="matrix(1.538461 0 0 1.375 0 0)"  d="M74.54688 -20.45703L80.62891 -15.45313L41.69922 16.57422L35.61719 11.57031L74.54688 -20.45703z" stroke="none" fill="#F7EFBD" fill-rule="nonzero" />
				<g transform="matrix(1.538461 0 0 1.375 0 0)">
				</g>
                <path transform="matrix(1.538461 0 0 1.375 0 0)"  d="M143.1172 -15.46484L149.1992 -10.46094L95.67188 33.57031L89.58594 28.56641L143.1172 -15.46484z" stroke="none" fill="#F7EFBD" fill-rule="nonzero" />
				<g transform="matrix(1.538461 0 0 1.375 0 0)">
				</g>
                <path transform="matrix(1.538461 0 0 1.375 0 0)"  d="M147.7578 -1.941406L153.8398 3.0625L114.9102 35.08594L108.8281 30.08203L147.7578 -1.941406z" stroke="none" fill="#F7EFBD" fill-rule="nonzero" />
				<g transform="matrix(1.538461 0 0 1.375 0 0)">
				</g>
                <path transform="matrix(1.538461 0 0 1.375 0 0)"  d="M123.6719 -20.45703L129.7539 -15.45313L90.82031 16.57422L84.73828 11.57031L123.6719 -20.45703z" stroke="none" fill="#F7EFBD" fill-rule="nonzero" />
				<g transform="matrix(1.538461 0 0 1.375 0 0)">
				</g>
                <path transform="matrix(1.538461 0 0 1.375 0 0)"  d="M192.2383 -15.46484L198.3242 -10.46094L144.793 33.57031L138.7109 28.56641L192.2383 -15.46484z" stroke="none" fill="#F7EFBD" fill-rule="nonzero" />
				<g transform="matrix(1.538461 0 0 1.375 0 0)">
				</g>
                <path transform="matrix(1.538461 0 0 1.375 0 0)"  d="M196.8789 -1.941406L202.9609 3.0625L164.0313 35.08594L157.9492 30.08203L196.8789 -1.941406z" stroke="none" fill="#F7EFBD" fill-rule="nonzero" />
				<g transform="matrix(1.538461 0 0 1.375 0 0)">
				</g>
                <path transform="matrix(1.538461 0 0 1.375 0 0)"  d="M172.793 -20.45703L178.875 -15.45313L139.9453 16.57422L133.8594 11.57031L172.793 -20.45703z" stroke="none" fill="#F7EFBD" fill-rule="nonzero" />
				<g transform="matrix(1.538461 0 0 1.375 0 0)">
				</g>
                <path transform="matrix(1.538461 0 0 1.375 0 0)"  d="M241.3633 -15.46484L247.4453 -10.46094L193.9141 33.57031L187.832 28.56641L241.3633 -15.46484z" stroke="none" fill="#F7EFBD" fill-rule="nonzero" />
				<g transform="matrix(1.538461 0 0 1.375 0 0)">
				</g>
                <path transform="matrix(1.538461 0 0 1.375 0 0)"  d="M246.0039 -1.941406L252.0859 3.0625L213.1523 35.08594L207.0703 30.08203L246.0039 -1.941406z" stroke="none" fill="#F7EFBD" fill-rule="nonzero" />
				<g transform="matrix(1.538461 0 0 1.375 0 0)">
				</g>
                <path transform="matrix(1.538461 0 0 1.375 0 0)"  d="M221.9141 -20.45703L227.9961 -15.45313L189.0664 16.57422L182.9844 11.57031L221.9141 -20.45703z" stroke="none" fill="#F7EFBD" fill-rule="nonzero" />
				<g transform="matrix(1.538461 0 0 1.375 0 0)">
				</g>
                <path transform="matrix(1.538461 0 0 1.375 0 0)"  d="M290.4844 -15.46484L296.5664 -10.46094L243.0352 33.57031L236.9531 28.56641L290.4844 -15.46484z" stroke="none" fill="#F7EFBD" fill-rule="nonzero" />
				<g transform="matrix(1.538461 0 0 1.375 0 0)">
				</g>
                <path transform="matrix(1.538461 0 0 1.375 0 0)"  d="M295.125 -1.941406L301.207 3.0625L262.2773 35.08594L256.1914 30.08203L295.125 -1.941406z" stroke="none" fill="#F7EFBD" fill-rule="nonzero" />
				<g transform="matrix(1.538461 0 0 1.375 0 0)">
				</g>
                <path transform="matrix(1.538461 0 0 1.375 0 0)"  d="M271.0352 -20.45703L277.1211 -15.45313L238.1875 16.57422L232.1055 11.57031L271.0352 -20.45703z" stroke="none" fill="#F7EFBD" fill-rule="nonzero" />
				<g transform="matrix(1.538461 0 0 1.375 0 0)">
				</g>
                <path transform="matrix(1.538461 0 0 1.375 0 0)"  d="M339.6055 -15.46484L345.6875 -10.46094L292.1602 33.57031L286.0781 28.56641L339.6055 -15.46484z" stroke="none" fill="#F7EFBD" fill-rule="nonzero" />
				<g transform="matrix(1.538461 0 0 1.375 0 0)">
				</g>
                <path transform="matrix(1.538461 0 0 1.375 0 0)"  d="M344.2461 -1.941406L350.3281 3.0625L311.3984 35.08594L305.3164 30.08203L344.2461 -1.941406z" stroke="none" fill="#F7EFBD" fill-rule="nonzero" />
				<g transform="matrix(1.538461 0 0 1.375 0 0)">
				</g>
                <path transform="matrix(1.538461 0 0 1.375 0 0)"  d="M320.1602 -20.45703L326.2422 -15.45313L287.3086 16.57422L281.2266 11.57031L320.1602 -20.45703z" stroke="none" fill="#F7EFBD" fill-rule="nonzero" />
				<g transform="matrix(1.538461 0 0 1.375 0 0)">
				</g>
                <path transform="matrix(1.538461 0 0 1.375 0 0)"  d="M388.7305 -15.46484L394.8125 -10.46094L341.2813 33.57031L335.1992 28.56641L388.7305 -15.46484z" stroke="none" fill="#F7EFBD" fill-rule="nonzero" />
				<g transform="matrix(1.538461 0 0 1.375 0 0)">
				</g>
                <path transform="matrix(1.538461 0 0 1.375 0 0)"  d="M393.3672 -1.941406L399.4531 3.0625L360.5195 35.08594L354.4375 30.08203L393.3672 -1.941406z" stroke="none" fill="#F7EFBD" fill-rule="nonzero" />
				<g transform="matrix(1.538461 0 0 1.375 0 0)">
				</g>
                <path transform="matrix(1.538461 0 0 1.375 0 0)"  d="M369.2813 -20.45703L375.3633 -15.45313L336.4336 16.57422L330.3516 11.57031L369.2813 -20.45703z" stroke="none" fill="#F7EFBD" fill-rule="nonzero" />
				<g transform="matrix(1.538461 0 0 1.375 0 0)">
				</g>
                <path transform="matrix(1.538461 0 0 1.375 0 0)"  d="M437.8516 -15.46484L443.9336 -10.46094L390.4023 33.57031L384.3203 28.56641L437.8516 -15.46484z" stroke="none" fill="#F7EFBD" fill-rule="nonzero" />
				<g transform="matrix(1.538461 0 0 1.375 0 0)">
				</g>
                <path transform="matrix(1.538461 0 0 1.375 0 0)"  d="M418.4023 -20.45703L424.4844 -15.45313L385.5547 16.57422L379.4727 11.57031L418.4023 -20.45703z" stroke="none" fill="#F7EFBD" fill-rule="nonzero" />
				<g transform="matrix(1.538461 0 0 1.375 0 0)">
				</g>
                <path transform="matrix(1.538461 0 0 1.375 0 0)"  d="M44.875 65.35156L50.95703 70.35156L-2.574219 114.3867L-8.65625 109.3828L44.875 65.35156z" stroke="none" fill="#F7EFBD" fill-rule="nonzero" />
				<g transform="matrix(1.538461 0 0 1.375 0 0)">
				</g>
                <path transform="matrix(1.538461 0 0 1.375 0 0)"  d="M49.51172 78.875L55.59766 83.87891L16.66406 115.9023L10.58203 110.8984L49.51172 78.875z" stroke="none" fill="#F7EFBD" fill-rule="nonzero" />
				<g transform="matrix(1.538461 0 0 1.375 0 0)">
				</g>
                <path transform="matrix(1.538461 0 0 1.375 0 0)"  d="M25.42578 60.35938L31.50781 65.36328L-7.421875 97.39063L-13.50391 92.38672L25.42578 60.35938z" stroke="none" fill="#F7EFBD" fill-rule="nonzero" />
				<g transform="matrix(1.538461 0 0 1.375 0 0)">
				</g>
                <path transform="matrix(1.538461 0 0 1.375 0 0)"  d="M93.99609 65.35156L100.0781 70.35156L46.54688 114.3867L40.46484 109.3828L93.99609 65.35156z" stroke="none" fill="#F7EFBD" fill-rule="nonzero" />
				<g transform="matrix(1.538461 0 0 1.375 0 0)">
				</g>
                <path transform="matrix(1.538461 0 0 1.375 0 0)"  d="M98.63672 78.875L104.7188 83.87891L65.78906 115.9023L59.70313 110.8984L98.63672 78.875z" stroke="none" fill="#F7EFBD" fill-rule="nonzero" />
				<g transform="matrix(1.538461 0 0 1.375 0 0)">
				</g>
                <path transform="matrix(1.538461 0 0 1.375 0 0)"  d="M74.54688 60.35938L80.62891 65.36328L41.69922 97.39063L35.61719 92.38672L74.54688 60.35938z" stroke="none" fill="#F7EFBD" fill-rule="nonzero" />
				<g transform="matrix(1.538461 0 0 1.375 0 0)">
				</g>
                <path transform="matrix(1.538461 0 0 1.375 0 0)"  d="M143.1172 65.35156L149.1992 70.35156L95.67188 114.3867L89.58594 109.3828L143.1172 65.35156z" stroke="none" fill="#F7EFBD" fill-rule="nonzero" />
				<g transform="matrix(1.538461 0 0 1.375 0 0)">
				</g>
                <path transform="matrix(1.538461 0 0 1.375 0 0)"  d="M147.7578 78.875L153.8398 83.87891L114.9102 115.9023L108.8281 110.8984L147.7578 78.875z" stroke="none" fill="#F7EFBD" fill-rule="nonzero" />
				<g transform="matrix(1.538461 0 0 1.375 0 0)">
				</g>
                <path transform="matrix(1.538461 0 0 1.375 0 0)"  d="M123.6719 60.35938L129.7539 65.36328L90.82031 97.39063L84.73828 92.38672L123.6719 60.35938z" stroke="none" fill="#F7EFBD" fill-rule="nonzero" />
				<g transform="matrix(1.538461 0 0 1.375 0 0)">
				</g>
                <path transform="matrix(1.538461 0 0 1.375 0 0)"  d="M192.2383 65.35156L198.3242 70.35156L144.793 114.3867L138.7109 109.3828L192.2383 65.35156z" stroke="none" fill="#F7EFBD" fill-rule="nonzero" />
				<g transform="matrix(1.538461 0 0 1.375 0 0)">
				</g>
                <path transform="matrix(1.538461 0 0 1.375 0 0)"  d="M196.8789 78.875L202.9609 83.87891L164.0313 115.9023L157.9492 110.8984L196.8789 78.875z" stroke="none" fill="#F7EFBD" fill-rule="nonzero" />
				<g transform="matrix(1.538461 0 0 1.375 0 0)">
				</g>
                <path transform="matrix(1.538461 0 0 1.375 0 0)"  d="M172.793 60.35938L178.875 65.36328L139.9453 97.39063L133.8594 92.38672L172.793 60.35938z" stroke="none" fill="#F7EFBD" fill-rule="nonzero" />
				<g transform="matrix(1.538461 0 0 1.375 0 0)">
				</g>
                <path transform="matrix(1.538461 0 0 1.375 0 0)"  d="M241.3633 65.35156L247.4453 70.35156L193.9141 114.3867L187.832 109.3828L241.3633 65.35156z" stroke="none" fill="#F7EFBD" fill-rule="nonzero" />
				<g transform="matrix(1.538461 0 0 1.375 0 0)">
				</g>
                <path transform="matrix(1.538461 0 0 1.375 0 0)"  d="M246.0039 78.875L252.0859 83.87891L213.1523 115.9023L207.0703 110.8984L246.0039 78.875z" stroke="none" fill="#F7EFBD" fill-rule="nonzero" />
				<g transform="matrix(1.538461 0 0 1.375 0 0)">
				</g>
                <path transform="matrix(1.538461 0 0 1.375 0 0)"  d="M221.9141 60.35938L227.9961 65.36328L189.0664 97.39063L182.9844 92.38672L221.9141 60.35938z" stroke="none" fill="#F7EFBD" fill-rule="nonzero" />
				<g transform="matrix(1.538461 0 0 1.375 0 0)">
				</g>
                <path transform="matrix(1.538461 0 0 1.375 0 0)"  d="M290.4844 65.35156L296.5664 70.35156L243.0352 114.3867L236.9531 109.3828L290.4844 65.35156z" stroke="none" fill="#F7EFBD" fill-rule="nonzero" />
				<g transform="matrix(1.538461 0 0 1.375 0 0)">
				</g>
                <path transform="matrix(1.538461 0 0 1.375 0 0)"  d="M295.125 78.875L301.207 83.87891L262.2773 115.9023L256.1914 110.8984L295.125 78.875z" stroke="none" fill="#F7EFBD" fill-rule="nonzero" />
				<g transform="matrix(1.538461 0 0 1.375 0 0)">
				</g>
                <path transform="matrix(1.538461 0 0 1.375 0 0)"  d="M271.0352 60.35938L277.1211 65.36328L238.1875 97.39063L232.1055 92.38672L271.0352 60.35938z" stroke="none" fill="#F7EFBD" fill-rule="nonzero" />
				<g transform="matrix(1.538461 0 0 1.375 0 0)">
				</g>
                <path transform="matrix(1.538461 0 0 1.375 0 0)"  d="M339.6055 65.35156L345.6875 70.35156L292.1602 114.3867L286.0781 109.3828L339.6055 65.35156z" stroke="none" fill="#F7EFBD" fill-rule="nonzero" />
				<g transform="matrix(1.538461 0 0 1.375 0 0)">
				</g>
                <path transform="matrix(1.538461 0 0 1.375 0 0)"  d="M344.2461 78.875L350.3281 83.87891L311.3984 115.9023L305.3164 110.8984L344.2461 78.875z" stroke="none" fill="#F7EFBD" fill-rule="nonzero" />
				<g transform="matrix(1.538461 0 0 1.375 0 0)">
				</g>
                <path transform="matrix(1.538461 0 0 1.375 0 0)"  d="M320.1602 60.35938L326.2422 65.36328L287.3086 97.39063L281.2266 92.38672L320.1602 60.35938z" stroke="none" fill="#F7EFBD" fill-rule="nonzero" />
				<g transform="matrix(1.538461 0 0 1.375 0 0)">
				</g>
                <path transform="matrix(1.538461 0 0 1.375 0 0)"  d="M388.7305 65.35156L394.8125 70.35156L341.2813 114.3867L335.1992 109.3828L388.7305 65.35156z" stroke="none" fill="#F7EFBD" fill-rule="nonzero" />
				<g transform="matrix(1.538461 0 0 1.375 0 0)">
				</g>
                <path transform="matrix(1.538461 0 0 1.375 0 0)"  d="M393.3672 78.875L399.4531 83.87891L360.5195 115.9023L354.4375 110.8984L393.3672 78.875z" stroke="none" fill="#F7EFBD" fill-rule="nonzero" />
				<g transform="matrix(1.538461 0 0 1.375 0 0)">
				</g>
                <path transform="matrix(1.538461 0 0 1.375 0 0)"  d="M369.2813 60.35938L375.3633 65.36328L336.4336 97.39063L330.3516 92.38672L369.2813 60.35938z" stroke="none" fill="#F7EFBD" fill-rule="nonzero" />
				<g transform="matrix(1.538461 0 0 1.375 0 0)">
				</g>
                <path transform="matrix(1.538461 0 0 1.375 0 0)"  d="M437.8516 65.35156L443.9336 70.35156L390.4023 114.3867L384.3203 109.3828L437.8516 65.35156z" stroke="none" fill="#F7EFBD" fill-rule="nonzero" />
				<g transform="matrix(1.538461 0 0 1.375 0 0)">
				</g>
                <path transform="matrix(1.538461 0 0 1.375 0 0)"  d="M418.4023 60.35938L424.4844 65.36328L385.5547 97.39063L379.4727 92.38672L418.4023 60.35938z" stroke="none" fill="#F7EFBD" fill-rule="nonzero" />
			</g>
		</g>
		<g transform="matrix(2.290075 0 0 1.683673 6.870225 5.051018)">
		</g>
        <path transform="matrix(2.290075 0 0 1.683673 6.870225 5.051018)"  d="M13.99956 -0.00130208L242.0004 -0.00130208C 249.7313 -0.00130208 256.0005 6.267253 256.0005 14.00006L256.0005 14.00006L256.0005 92.0013L-0.000540865 92.0013L-0.000540865 14.00006C -0.000540865 6.267253 6.26867 -0.00130208 13.99956 -0.00130208z" stroke="#F4E7CE" stroke-width="0.5" stroke-linecap="round" stroke-dasharray="2,2" fill="#099114" fill-rule="nonzero" />
	</g>
</g>
</svg>