<svg xmlns="http://www.w3.org/2000/svg" xmlns:xlink="http://www.w3.org/1999/xlink" width="32" height="32" viewBox="0 0 32 32"><defs><style>.a,.e{fill:#ff0019;}.b{opacity:0.8;}.c{opacity:0.494;clip-path:url(#a);}.d{fill:#f7efbd;}.e{stroke:#f4e7ce;stroke-linecap:round;stroke-width:0.5px;stroke-dasharray:2;}</style><clipPath id="a"><path class="a" d="M0,0H32a0,0,0,0,1,0,0V18A14,14,0,0,1,18,32H0a0,0,0,0,1,0,0V0A0,0,0,0,1,0,0Z"/></clipPath></defs><g class="b" transform="translate(-267 -28)"><path class="a" d="M0,0H32a0,0,0,0,1,0,0V18A14,14,0,0,1,18,32H0a0,0,0,0,1,0,0V0A0,0,0,0,1,0,0Z" transform="translate(267 28)"/><g class="c" transform="translate(267 28)"><rect class="d" width="5.779" height="50.857" transform="translate(30.146 -3.842) rotate(45)"/><rect class="d" width="5.779" height="36.987" transform="translate(33.263 7.203) rotate(45)"/><rect class="d" width="5.779" height="36.987" transform="translate(17.081 -7.917) rotate(45)"/></g><path class="e" d="M0,0H26a0,0,0,0,1,0,0V12A14,14,0,0,1,12,26H0a0,0,0,0,1,0,0V0A0,0,0,0,1,0,0Z" transform="translate(270 31)"/></g></svg>