<svg xmlns="http://www.w3.org/2000/svg" xmlns:xlink="http://www.w3.org/1999/xlink" width="262" height="32" viewBox="0 0 262 32"><defs><style>.a{fill:#ff0019;}.b{fill:none;}.c{opacity:0.8;}.d,.h{fill:#0246ff;}.e{opacity:0.494;clip-path:url(#a);}.f{clip-path:url(#b);}.g{fill:#f7efbd;}.h{stroke:#f4e7ce;stroke-linecap:round;stroke-width:0.5px;stroke-dasharray:2;}</style><clipPath id="a"><path class="a" d="M0,0H262a0,0,0,0,1,0,0V18a14,14,0,0,1-14,14H14A14,14,0,0,1,0,18V0A0,0,0,0,1,0,0Z"/></clipPath><clipPath id="b"><rect class="b" width="291.422" height="45.36"/></clipPath></defs><g class="c"><path class="d" d="M0,0H262a0,0,0,0,1,0,0V18a14,14,0,0,1-14,14H14A14,14,0,0,1,0,18V0A0,0,0,0,1,0,0Z"/><g class="e"><g class="f" transform="translate(-9.072 -7.917)"><g transform="translate(9.072 7.917)"><rect class="g" width="5.779" height="50.857" transform="translate(30.146 -3.842) rotate(45)"/><rect class="g" width="5.779" height="36.987" transform="translate(33.263 7.203) rotate(45)"/><rect class="g" width="5.779" height="36.987" transform="translate(17.081 -7.917) rotate(45)"/></g><g transform="translate(42.072 7.917)"><rect class="g" width="5.779" height="50.857" transform="translate(30.146 -3.842) rotate(45)"/><rect class="g" width="5.779" height="36.987" transform="translate(33.263 7.203) rotate(45)"/><rect class="g" width="5.779" height="36.987" transform="translate(17.081 -7.917) rotate(45)"/></g><g transform="translate(75.072 7.917)"><rect class="g" width="5.779" height="50.857" transform="translate(30.146 -3.842) rotate(45)"/><rect class="g" width="5.779" height="36.987" transform="translate(33.263 7.203) rotate(45)"/><rect class="g" width="5.779" height="36.987" transform="translate(17.081 -7.917) rotate(45)"/></g><g transform="translate(108.072 7.917)"><rect class="g" width="5.779" height="50.857" transform="translate(30.146 -3.842) rotate(45)"/><rect class="g" width="5.779" height="36.987" transform="translate(33.263 7.203) rotate(45)"/><rect class="g" width="5.779" height="36.987" transform="translate(17.081 -7.917) rotate(45)"/></g><g transform="translate(141.072 7.917)"><rect class="g" width="5.779" height="50.857" transform="translate(30.146 -3.842) rotate(45)"/><rect class="g" width="5.779" height="36.987" transform="translate(33.263 7.203) rotate(45)"/><rect class="g" width="5.779" height="36.987" transform="translate(17.081 -7.917) rotate(45)"/></g><g transform="translate(174.072 7.917)"><rect class="g" width="5.779" height="50.857" transform="translate(30.146 -3.842) rotate(45)"/><rect class="g" width="5.779" height="36.987" transform="translate(33.263 7.203) rotate(45)"/><rect class="g" width="5.779" height="36.987" transform="translate(17.081 -7.917) rotate(45)"/></g><g transform="translate(207.072 7.917)"><rect class="g" width="5.779" height="50.857" transform="translate(30.146 -3.842) rotate(45)"/><rect class="g" width="5.779" height="36.987" transform="translate(33.263 7.203) rotate(45)"/><rect class="g" width="5.779" height="36.987" transform="translate(17.081 -7.917) rotate(45)"/></g><g transform="translate(240.072 7.917)"><rect class="g" width="5.779" height="50.857" transform="translate(30.146 -3.842) rotate(45)"/><rect class="g" width="5.779" height="36.987" transform="translate(33.263 7.203) rotate(45)"/><rect class="g" width="5.779" height="36.987" transform="translate(17.081 -7.917) rotate(45)"/></g><g transform="translate(273.072 7.917)"><rect class="g" width="5.779" height="50.857" transform="translate(30.146 -3.842) rotate(45)"/><rect class="g" width="5.779" height="36.987" transform="translate(33.263 7.203) rotate(45)"/><rect class="g" width="5.779" height="36.987" transform="translate(17.081 -7.917) rotate(45)"/></g></g></g><path class="h" d="M0,0H256a0,0,0,0,1,0,0V12a14,14,0,0,1-14,14H14A14,14,0,0,1,0,12V0A0,0,0,0,1,0,0Z" transform="translate(3 3)"/></g></svg>