<svg xmlns="http://www.w3.org/2000/svg" xmlns:xlink="http://www.w3.org/1999/xlink" width="32" height="98" viewBox="0 0 32 98"><defs><style>.a{fill:#ff0019;}.b{opacity:0.8;}.c,.f{fill:#0246ff;}.d{opacity:0.494;clip-path:url(#a);}.e{fill:#f7efbd;}.f{stroke:#f4e7ce;stroke-linecap:round;stroke-width:0.5px;stroke-dasharray:2;}</style><clipPath id="a"><path class="a" d="M14,0H32a0,0,0,0,1,0,0V98a0,0,0,0,1,0,0H0a0,0,0,0,1,0,0V14A14,14,0,0,1,14,0Z"/></clipPath></defs><g class="b"><path class="c" d="M14,0H32a0,0,0,0,1,0,0V98a0,0,0,0,1,0,0H0a0,0,0,0,1,0,0V14A14,14,0,0,1,14,0Z"/><g class="d"><path class="e" d="M0,0,11.769,5.99,64.478,109.555l-11.769-5.99Z" transform="translate(1.854 110.138) rotate(-135)"/><path class="e" d="M0,0,11.769,5.99,50.1,81.31l-11.769-5.99Z" transform="translate(-1.263 76.196) rotate(-135)"/><path class="e" d="M0,0,11.769,5.99,50.1,81.31l-11.769-5.99Z" transform="translate(14.919 122.658) rotate(-135)"/></g><path class="f" d="M14,0H26a0,0,0,0,1,0,0V92a0,0,0,0,1,0,0H0a0,0,0,0,1,0,0V14A14,14,0,0,1,14,0Z" transform="translate(3 3)"/></g></svg>