<svg xmlns="http://www.w3.org/2000/svg" width="19.633" height="19.633" viewBox="0 0 19.633 19.633"><defs><style>.a{fill:#f4f4f4;}</style></defs><path class="a" d="M6.672,8.94,9.816,6.661,12.961,8.94l-1.194,3.681H7.877ZM9.816,0a9.6,9.6,0,0,1,3.813.778A9.643,9.643,0,0,1,18.855,6a9.735,9.735,0,0,1,0,7.625,9.643,9.643,0,0,1-5.226,5.226,9.735,9.735,0,0,1-7.625,0A9.643,9.643,0,0,1,.778,13.629,9.734,9.734,0,0,1,.778,6,9.643,9.643,0,0,1,6,.778,9.6,9.6,0,0,1,9.816,0ZM16.6,14.791A8.2,8.2,0,0,0,18.23,9.816V9.784l-1.117.975L14.484,8.3l.69-3.539,1.468.131A8.245,8.245,0,0,0,12.38,1.808l.581,1.358L9.816,4.908,6.672,3.166l.581-1.358A8.248,8.248,0,0,0,2.991,4.9L4.47,4.766,5.149,8.3,2.52,10.759,1.4,9.784v.033a8.206,8.206,0,0,0,1.632,4.974l.329-1.446,3.572.438,1.523,3.265L7.187,17.8a8.307,8.307,0,0,0,5.258,0l-1.271-.756L12.7,13.783l3.572-.438Z"/></svg>