<svg xmlns="http://www.w3.org/2000/svg" width="18" height="17.958" viewBox="0 0 18 17.958"><defs><style>.a{fill:#a2a2a2;}</style></defs><path class="a" d="M9,.25a8.672,8.672,0,0,1,6.365,2.635A8.648,8.648,0,0,1,18,9.229a8.648,8.648,0,0,1-2.635,6.344A8.672,8.672,0,0,1,9,18.208a8.672,8.672,0,0,1-6.365-2.635A8.65,8.65,0,0,1,0,9.229,8.646,8.646,0,0,1,2.635,2.885,8.674,8.674,0,0,1,9,.25Zm4.49,12.225L10.244,9.229,13.49,5.983,12.225,4.718,8.979,7.964l-3.2-3.246L4.511,5.983l3.2,3.246-3.2,3.246L5.775,13.74l3.2-3.246,3.246,3.246Z" transform="translate(0 -0.25)"/></svg>