<svg xmlns="http://www.w3.org/2000/svg" width="102.176" height="85.34" viewBox="0 0 102.176 85.34"><defs><style>.a,.d{fill:#fff;}.b{fill:#60c4d3;}.b,.c,.d{fill-rule:evenodd;}.e,.f{fill:#1a1818;font-family:FargoFaroNF, Fargo Faro NF;}.e{font-size:11px;}.f{font-size:12px;}</style></defs><g transform="translate(-5323.747 -3058.729)"><path class="a" d="M10.6,611.654s46.448-12.646,76.2,0c.29.505,3.18,3.188,2.11,5.962s-6.463,9.19-6.463,9.19-45.083-6.684-67.6-1.143-4.251-5.842-4.251-5.842-1.825-4.4-1.061-6.128A9.3,9.3,0,0,1,10.6,611.654Z" transform="translate(5325.768 2497.166)"/><g transform="translate(5349.395 3058.729)"><path class="b" d="M7107.373,3710.3l-.019-.015a11.732,11.732,0,0,0-5.237-2.651l.778.687a30.15,30.15,0,0,1,3.549,1.535q.471.214.929.445Zm-11.522.083a5.9,5.9,0,0,0-.556.419l14.048,14.36-1.646,10.88q3.414.169,6.735.46l.727-1.065-.5-3.315c.717.015,1.269.022,1.269.022l.578-.666a.863.863,0,0,0-.106-.554c-.335-.291-.224-7.717-.224-7.717l-.354-.587-.152.082.014-.312-1.129-1.868-2.014-3.3-1.126-.918-.6.425-.355-1.205-.936-.762-10.681-4.306-2.991-.076Zm27.08,27.079q-3.255-.453-6.63-.785.322-.437.609-.9c.177-.282.344-.571.5-.867,1.335-.642,2.785-1.528,2.785-2.348a3.477,3.477,0,0,0-1.223-2.463l.005-.039,0-.012a3.487,3.487,0,0,1,1.474.638,6.832,6.832,0,0,1,1.616,2.264,6.191,6.191,0,0,0,.42-2.167,4.974,4.974,0,0,0-1.034-2.652,3.965,3.965,0,0,1,1.584,1.423c.906,1.2,1.193,2.91.579,5.884a7.924,7.924,0,0,1-.69,2.02Zm-3.81-8.993,3.21-3.7.711.711,2.133-7.889-7.309,3.928a17.88,17.88,0,0,1,.735,2.25,16.647,16.647,0,0,1,.519,4.7Zm-3.232-10.675q-.212-.314-.434-.623l.475-.272-.041.9Zm-2.048-2.6q-.245-.267-.5-.527A3.24,3.24,0,0,1,7113.839,3715.2Z" transform="translate(-7073.055 -3690.095)"/><path class="c" d="M6273.7,4234a52.51,52.51,0,0,1,12.073-3.814,83.008,83.008,0,0,1,12.146-1.325h.148a83.023,83.023,0,0,1,12.146,1.325c1.823.353,3.639.789,5.45,1.327-.015,2.1-.015,6.332.236,6.551.335.291-.223,3.019-.223,3.019l-1.744,2.559c-5.146-.45-10.477-.687-15.938-.687a178.4,178.4,0,0,0-24.22,1.616l-1.069-8.8-.15-1.238,1.146-.528Zm42.1,9.815q3.26.32,6.412.754l1.07-8.8.15-1.238-1.148-.528q-1.929-.885-3.871-1.583a15.933,15.933,0,0,1,.064,4.784,14.54,14.54,0,0,1-2.069,5.717q-.287.459-.609.9Zm4.618,15.522-.423,3.488-.1.841-.726.433a111.575,111.575,0,0,1-10.2,5.444,68.367,68.367,0,0,1-10.514,3.923h-.917a68.386,68.386,0,0,1-10.514-3.923,111.711,111.711,0,0,1-10.2-5.444l-.726-.433-.1-.841-.424-3.488a183.046,183.046,0,0,1,44.851,0Z" transform="translate(-6272.555 -4197.229)"/><path class="d" d="M6420.5,4357.345a49.822,49.822,0,0,0-10.142,3.05l.914,7.519a180.341,180.341,0,0,1,20.8-1.182c5.461,0,10.792.237,15.938.687l1.744-2.558s.559-2.729.224-3.02a11.806,11.806,0,0,1-.225-2.945,52.829,52.829,0,0,0-6.107-1.55,53.487,53.487,0,0,0-23.146,0Zm-7.43,25.375.321,2.637c3.01,1.769,6.062,3.41,9.151,4.839a14.4,14.4,0,0,0,19.062,0c3.088-1.429,6.141-3.07,9.151-4.839l.32-2.637a184.177,184.177,0,0,0-38,0Zm39.8-14.806q-1.487-.172-3-.321.322-.437.61-.9a14.553,14.553,0,0,0,2.069-5.717q.074-.521.111-1.043.561.221,1.119.459Z" transform="translate(-6406.634 -4321.009)"/><path class="b" d="M7213.667,4393.8a65.87,65.87,0,0,0,9.531-3.606c3.089-1.429,6.141-3.07,9.151-4.839l.32-2.637a181.538,181.538,0,0,0-19-.983V4393.8Zm20.8-25.888.914-7.519q-.558-.238-1.119-.459c-.025.348-.061.7-.111,1.043a14.569,14.569,0,0,1-2.069,5.717q-.288.459-.609.9,1.508.149,2.994.321Zm-4.863-.5c-5.146-.45-10.477-.687-15.938-.687v-10.654a79.459,79.459,0,0,1,11.573,1.267,52.887,52.887,0,0,1,6.107,1.55,11.717,11.717,0,0,0,.226,2.945c.334.291-.225,3.02-.225,3.02Z" transform="translate(-7188.227 -4321.009)"/><path class="c" d="M7029.079,3078.723a5.347,5.347,0,0,1,3.72.406,5.66,5.66,0,0,1,2.578,3.035l4.871-2.548-1.311,3.762,14.543-8.388-6.933,21.115c2.222,1.358,2.474,3.007,2.474,5.771a7.507,7.507,0,0,1-1.928,5.031c-.785-.164-2.359-.547-3.8-.945a7.535,7.535,0,0,0-.885-9.293c1.158-2.664,2.567-10.329,3.4-13.681l-10.857,4.541-.146-.245,1.261-3.159-2.7.666s.214-2.843-1.232-3.607a2.97,2.97,0,0,0-2.39-.238c.042.216.075.435.1.656q-.474-.386-.973-.749a10.075,10.075,0,0,0-8.8-5.478,9.427,9.427,0,0,0-2.762.412,43.876,43.876,0,0,0-5.915-.966,11.034,11.034,0,0,1,4.3-2.458l3.777-13.634,4.539,14.44A11.139,11.139,0,0,1,7029.079,3078.723Z" transform="translate(-6991.424 -3058.729)"/></g><path class="b" d="M6141.964,5449.144c2.18-1.128,4.346-2.346,6.5-3.627l.728-.433.1-.84.138-1.142q4.118.511,8.038,1.207l-15.5,4.835Zm-44.86-4.834q3.918-.692,8.042-1.208l.139,1.142.1.84.727.433c2.152,1.283,4.322,2.5,6.5,3.632Z" transform="translate(-752.451 -2319.919)"/><path class="c" d="M5915.79,4603.623a21.368,21.368,0,0,0,3.685-7.7,21.6,21.6,0,0,1-2.7,7.865l-.985-.167Zm-67.524.265a21.565,21.565,0,0,1-2.759-7.963,21.4,21.4,0,0,0,3.789,7.833Z" transform="translate(-507.656 -1495.643)"/><path class="b" d="M6079.55,3911.3a10.313,10.313,0,0,1,.1-6.756,12.471,12.471,0,0,1,4.361-5.587,20.623,20.623,0,0,1,7.126-3.292,40.819,40.819,0,0,1,5.179-.728,20.435,20.435,0,0,0-2.13,1.851,34.859,34.859,0,0,0-7.237,1.609,14.192,14.192,0,0,0-6.1,4.85,9.549,9.549,0,0,0-1.375,7.758C6079.5,3911.1,6079.524,3911.2,6079.55,3911.3Z" transform="translate(-734.869 -813.602)"/><path class="c" d="M5892.054,3691.065c-5.771.733-13.464,3.087-16.561,8.449a8.875,8.875,0,0,1,1.464-2.952c2.4-3.241,6.6-5.151,10.4-6.2,9.7-2.669,24.217-1.478,33.519,4.8a21.49,21.49,0,0,1,8.629,9.613,16.783,16.783,0,0,1,.232,13.707c-.016.037-.034.074-.05.111-5.786-.577-11.82-.883-18.023-.883-5.652,0-11.164.253-16.475.735a20.172,20.172,0,0,1-1.7-3.077,16.733,16.733,0,0,1-.1-13.944,15.561,15.561,0,0,1,1.824-2.985q-.853.264-1.662.6a14.891,14.891,0,0,0-6.745,5.223,11.908,11.908,0,0,0-1.839,8.975,16.526,16.526,0,0,0,2.41,6.105q-1.37.188-2.715.4a16.917,16.917,0,0,1-2.888-6.78,11.906,11.906,0,0,1,1.839-8.975,14.888,14.888,0,0,1,6.745-5.222,22.026,22.026,0,0,1,5.835-1.459,16.575,16.575,0,0,1,5.086-3.631,28.868,28.868,0,0,0-8.064.517,20.541,20.541,0,0,0-7.764,3.324,13.94,13.94,0,0,0-4.921,6.214,13.284,13.284,0,0,0-.282,8.481,19.466,19.466,0,0,0,4.217,7.562q-.858.134-1.707.277c-2.622-2.852-4.63-5.988-5.3-8.729-1.389-5.711.71-11.119,5.213-15.134A25.476,25.476,0,0,1,5892.054,3691.065Z" transform="translate(-536.831 -613.262)"/><path class="c" d="M6051.634,4669.407c14.5,0,26.936,2.11,32.283,5.123a178.727,178.727,0,0,0-64.568,0C6024.7,4671.518,6037.137,4669.407,6051.634,4669.407Z" transform="translate(-676.799 -1567.139)"/><path class="c" d="M5928.181,5469.433s20.958,6.274,27.684,7.913-2.117-3.219-2.117-3.219l-1.374.546-1.6-.5c-.911-1.085-2.626-3.113-2.768-3.16-2.755-.919-6.369-1.57-9.344-2.327l2.571,1.486-4.446-1.261,3.194,1.9-8.948-2.792-2.854,1.416Zm59.015-.746-2.571,1.486,4.446-1.261-3.187,1.892,8.935-2.787,2.853,1.416s-20.959,6.274-27.685,7.913,2.117-3.219,2.117-3.219l1.374.546,1.608-.5c.91-1.084,2.622-3.109,2.764-3.157C5980.606,5470.095,5984.221,5469.443,5987.2,5468.687Z" transform="translate(-588.095 -2344.16)"/><path class="c" d="M5997.682,5308.724v2.381a177.6,177.6,0,0,0-69.5,0v-2.381a177.555,177.555,0,0,1,69.5,0Z" transform="translate(-588.098 -2185.833)"/><path class="c" d="M6884.353,5431.5l.563,1.249,1.45.214-1.013.92.245,1.447-1.188-.68-1.3.68.279-1.341-1.048-1.026,1.361-.149.651-1.314Zm-14.68,0,.563,1.249,1.451.214-1.014.92.244,1.447-1.188-.68-1.3.68.278-1.341-1.048-1.026,1.361-.149.652-1.314Zm7.34-.149.87,1.931,2.246.333-1.568,1.424.378,2.239-1.839-1.051-2.013,1.051.432-2.074-1.622-1.589,2.106-.231Z" transform="translate(-1502.177 -2308.49)"/><g transform="translate(5323.747 3098.67)"><path class="c" d="M5340.236,4544.4c-3.644,1.793-5.285,7.521-3.04,10.7l-6.531,5.3,5.5-.711c-2.455,2.37,2.286,8.473,6.144,5.756l9.111,2.1,11.649,14.136-19.206-13.71c-3.988,3.04-10.681.636-10.282-5.5l-9.83.775,9.507-8.213c-.3-2.17.207-8.479,1.552-9.959l-6.855-8.8,11.851,7.065Z" transform="translate(-5323.748 -4536.284)"/><path class="c" d="M7671.9,4544.4c3.643,1.793,5.285,7.521,3.04,10.7l6.531,5.3-5.5-.711c2.454,2.37-2.286,8.473-6.143,5.756l-9.113,2.1-11.648,14.136,19.208-13.71c3.985,3.04,10.68.636,10.28-5.5l9.83.775-9.507-8.213c.3-2.17-.207-8.479-1.552-9.959l6.854-8.8-11.851,7.065Z" transform="translate(-7586.212 -4536.284)"/></g><path class="c" d="M5510.26,3386.285l4.824,2.81-1.259.8-3.565-3.607Zm-23.611,14.343-4.655,3.188,1.887,1.09,2.768-4.278Zm-49.471,1.929,6.669,5.033-3.691.209-2.978-5.242Zm-18.536-12.54,5.661-3.145L5419.48,3388l-.838,2.013Zm10.191-19-2.474-2.642,1.594-.252.88,2.894Zm36.32-31.79.419-3.775-1.719.923,1.3,2.852Zm26.631,10.318,2.559-3.943,2.685-.294-5.243,4.237Zm13.673,21.116.65-1.971,1.09.482Z" transform="translate(-92.33 -269.244)"/><path class="b" d="M5629.785,3607.3l-.168-2.8,2.74-1.286-2.572,4.082Zm28.323,29.806,2.07-2.237,1.844-.727-3.914,2.964Zm-10.149,24.268-3.915,3.243,2.852-.867,1.063-2.376Zm-51.474.084,5.257,3.8v2.46l-5.257-6.263Zm-21.388-6.151-2.209.615,1.119.671Z" transform="translate(-242.406 -529.775)"/><path class="d" d="M6609.491,3936.462a19.57,19.57,0,0,1,7.471,2.675l-.262.016c-1.088.071-2.25.219-3.232.37a15.521,15.521,0,0,0-4.236-1.5,22.019,22.019,0,0,0-2.239-.358c.016-.218.041-.476.083-.741.051-.316.091-.523.118-.657a20.216,20.216,0,0,1,2.3.2Zm8.608,3.434a15.938,15.938,0,0,1,5.5,6.856c-.007.064-.018.131-.027.2a3.69,3.69,0,0,1-.56,1.594,4.774,4.774,0,0,0-1.845-.223c-.871.037-1.517.087-1.932.126-.026-.032-.055-.063-.084-.1a23.967,23.967,0,0,0-3.527-3.055,9.587,9.587,0,0,0-1.359-.8,7.7,7.7,0,0,0,.067-2.9c-.149-.546-.305-1-.432-1.338.9-.134,1.939-.262,2.907-.325.454-.031.892-.046,1.29-.043Zm6.038,8.458a12.759,12.759,0,0,1,.32,4.992,7.383,7.383,0,0,0-.517-3.633c-.124-.233-.219-.41-.292-.544a3.382,3.382,0,0,0,.489-.814Zm-.059,6.8a12.581,12.581,0,0,1-.7,1.875l-.477-.059a5.456,5.456,0,0,0,1.14-1.71c.013-.035.026-.07.038-.105Zm-32.112,1.745a13.554,13.554,0,0,1-1.688-5.267c.16-.14.362-.318.6-.536a2.76,2.76,0,0,1,.5-.333,14.367,14.367,0,0,0,.727,6.12l-.138.016Zm1.8-6.858a10.445,10.445,0,0,0,1.9,2.081,15.43,15.43,0,0,0,1.482,1.053,7.449,7.449,0,0,0,.08,2.84q.042.2.092.392-.842.059-1.665.127a18.128,18.128,0,0,1-1.08-4.149,18.967,18.967,0,0,0,.5,4.2l-.414.038a14.428,14.428,0,0,1-.891-6.581Zm.343-8.9a17.538,17.538,0,0,1,12.148-4.891c-.026.134-.056.306-.091.522-.048.3-.076.591-.092.834a1.965,1.965,0,0,0-.317.023,5.908,5.908,0,0,0-2.307,1.389,9.506,9.506,0,0,0-1.429,2.023,23.106,23.106,0,0,0-2.828.5c-.695.162-1.39.351-2.02.545a17.212,17.212,0,0,1,7.163-4.937,17.858,17.858,0,0,0-8.86,4.887,5.674,5.674,0,0,0-.487-.366c-.359-.238-.66-.413-.881-.532Zm22.765,15.257-.349-.348c-.342.083-.748.171-1.2.25q.779.045,1.544.1Zm1.764-7.328a1.884,1.884,0,0,0-.2-.25,22.906,22.906,0,0,0-3.372-2.92,7.817,7.817,0,0,0-1.48-.836c-.768.221-2.136.593-3.246.785-1.252.216-2.8.327-3.46.367-.038.068-.077.142-.118.221a12.458,12.458,0,0,0-1.056,2.75c-.158.618-.276,1.249-.378,1.919l4.45,4.527a30.583,30.583,0,0,0,3.124.125,16.564,16.564,0,0,0,3.62-.538,20.984,20.984,0,0,0,1.369-3.146,14.323,14.323,0,0,0,.744-3.005Zm-22.761-5.208c-.333.807-.786,1.963-1.086,2.943-.3.963-.509,1.754-.64,2.259a10.328,10.328,0,0,0,2.124,2.488,14.514,14.514,0,0,0,1.479,1.044l6.716-1.925c.1-.581.2-1.137.344-1.686a13.176,13.176,0,0,1,1.11-2.9c.035-.069.07-.133.1-.194a19.373,19.373,0,0,1-1.927-1.443,19.756,19.756,0,0,1-2.3-2.587c-.692.09-1.512.248-2.336.44a24.148,24.148,0,0,0-3.2.958C6596.139,3943.465,6596.007,3943.667,6595.879,3943.869Z" transform="translate(-1232.295 -853.807)"/><path class="b" d="M6611.309,3936.81a19.017,19.017,0,0,0-4.3.72c.015-.187.038-.4.072-.61.051-.316.091-.523.118-.657l.185.006a20.308,20.308,0,0,1,3.93.541Zm-7.761,2.125a15.812,15.812,0,0,0-3.351,2.4c-.33.065-.666.138-1,.217-.695.162-1.39.351-2.02.545a17.212,17.212,0,0,1,7.163-4.937,17.858,17.858,0,0,0-8.86,4.887,5.674,5.674,0,0,0-.487-.366c-.359-.238-.66-.413-.881-.532l0,0a15.511,15.511,0,0,1,2.638-2.116,18.3,18.3,0,0,1,9.507-2.771c-.026.134-.056.306-.091.522-.048.3-.076.591-.092.834a1.965,1.965,0,0,0-.317.023,5.889,5.889,0,0,0-2.211,1.3Zm-4.356,3.444a12.987,12.987,0,0,0-3.115,6.7,12.67,12.67,0,0,0-.124,2.2,10.913,10.913,0,0,1-1.8-2.21c.131-.5.345-1.3.64-2.259.3-.98.754-2.137,1.086-2.943.128-.2.259-.4.4-.6a23.248,23.248,0,0,1,2.916-.89Zm-3.154,10.034c-.121-.092-.245-.187-.37-.288a10.445,10.445,0,0,1-1.9-2.081,14.428,14.428,0,0,0,.891,6.581l.414-.038a18.967,18.967,0,0,1-.5-4.2,18.128,18.128,0,0,0,1.08,4.149q.757-.062,1.526-.117a13.443,13.443,0,0,1-1.145-4.007Zm-4.071,4.489a14.2,14.2,0,0,1-1.048-2.342,13.167,13.167,0,0,1-.64-2.925c.16-.139.362-.317.6-.536a2.735,2.735,0,0,1,.5-.333,14.365,14.365,0,0,0,.727,6.12Z" transform="translate(-1232.295 -853.807)"/><g transform="translate(-4.865 -1.509)"><text class="e" transform="translate(5343.776 3122.85) rotate(-13)"><tspan x="0" y="0">F</tspan></text><text class="e" transform="matrix(0.99, -0.139, 0.139, 0.99, 5351.842, 3120.859)"><tspan x="0" y="0">R</tspan></text><text class="e" transform="matrix(0.996, -0.087, 0.087, 0.996, 5361.524, 3118.844)"><tspan x="0" y="0">E</tspan></text><text class="e" transform="matrix(0.996, -0.087, 0.087, 0.996, 5370.03, 3117.915)"><tspan x="0" y="0">E</tspan></text><text class="e" transform="matrix(0.999, 0.036, -0.035, 0.999, 5383.507, 3117.552)"><tspan x="0" y="0">K</tspan></text><text class="e" transform="translate(5392.612 3118.238) rotate(7)"><tspan x="0" y="0">I</tspan></text><text class="f" transform="translate(5398.375 3119.558) rotate(9)"><tspan x="0" y="0">C</tspan></text><text class="e" transform="matrix(0.982, 0.191, -0.191, 0.982, 5407.306, 3120.786)"><tspan x="0" y="0">K</tspan></text></g></g></svg>