<svg xmlns="http://www.w3.org/2000/svg" xmlns:xlink="http://www.w3.org/1999/xlink" width="97.946" height="43" viewBox="0 0 97.946 43"><defs><style>.a{fill:url(#a);}.b{fill:url(#b);}.c{fill:#fff;}</style><radialGradient id="a" cx="0.137" cy="0.016" r="0.542" gradientTransform="translate(0)" gradientUnits="objectBoundingBox"><stop offset="0.008" stop-color="#ff6b7b"/><stop offset="1" stop-color="#b21726"/></radialGradient><radialGradient id="b" cx="-1.308" cy="-0.508" r="1.666" gradientTransform="matrix(0.973, 0.23, -0.23, 0.973, -0.055, 0.341)" xlink:href="#a"/></defs><g transform="translate(-72.195 -413.457)"><g transform="translate(72.195 413.457)"><path class="a" d="M113.038,425.563a7.888,7.888,0,1,1-10.912-10.388,21.493,21.493,0,1,0,10.912,10.388Z" transform="translate(-72.195 -413.457)"/><circle class="b" cx="7" cy="7" r="7" transform="translate(25.352 3.401) rotate(-13.283)"/><g transform="translate(30.586 4.512)"><path class="c" d="M184.93,435.325a2.361,2.361,0,0,1,1.4-1.671,1.248,1.248,0,0,1-.568-1.426c.279-1.3,1.325-2.15,3.3-2.15,1.86,0,2.64.846,2.361,2.15a2.069,2.069,0,0,1-1.2,1.493,1.28,1.28,0,0,1,.735,1.6c-.3,1.426-1.426,2.15-3.475,2.15C185.531,437.475,184.629,436.751,184.93,435.325Zm4.322-.033c.111-.523-.112-.724-.724-.858l-.769-.167a1.221,1.221,0,0,0-1.1.969c-.134.646.167.9,1.114.9C188.661,436.139,189.129,435.882,189.252,435.292Zm.468-3.029c.122-.568-.111-.836-.947-.836-.746,0-1.181.245-1.3.836a.606.606,0,0,0,.546.813l.657.134C189.3,433.03,189.608,432.8,189.719,432.262Z" transform="translate(-184.873 -430.079)"/></g><path class="c" d="M166.607,488.91l2.305-10.186h-6.038l-2.928,12.935h.006c-.223,1.257.873,2.261,2.5,2.261h7.8l1.065-5.011Z" transform="translate(-136.111 -461.008)"/><g transform="translate(5.472 13.473)"><path class="c" d="M107.24,471.432l1.919-8.341h-6.042L101,472.305A38.117,38.117,0,0,0,107.24,471.432Z" transform="translate(-98.651 -463.091)"/><path class="c" d="M94.161,512.73l-.383-1.209-1.424,6.19h6.042l1.448-6.3A34.1,34.1,0,0,1,94.161,512.73Z" transform="translate(-92.353 -498.298)"/><g transform="translate(10.489 0.042)"><path class="c" d="M148.395,466.812l.822-3.565h-6.042l-1.592,6.9A35.415,35.415,0,0,0,148.395,466.812Z" transform="translate(-138.709 -463.247)"/><path class="c" d="M132.926,488.482l-1.932,8.38h6.042l3.242-14.063A26.946,26.946,0,0,1,132.926,488.482Z" transform="translate(-130.994 -477.492)"/></g><path class="c" d="M93.788,478.708a38.869,38.869,0,0,0,21.252-6.021c.091-.014-5.475,8.841-19.811,10.68Z" transform="translate(-93.398 -470.082)"/></g><g transform="translate(44.505 12.905)"><g transform="translate(0 1.683)"><path class="c" d="M248.653,486.393l1.649-7.741h-7.635l-1.649,7.741h-4.868l4.083-19.193h4.882l-1.6,7.528h7.635l1.6-7.528h4.894l-4.083,19.193Z" transform="translate(-236.151 -467.2)"/><path class="c" d="M321.512,486.393H308.477L312.56,467.2h4.881l-3.232,15.163h8.153Z" transform="translate(-288.845 -467.2)"/></g><g transform="translate(34.579)"><path class="c" d="M363.7,475.982a6.738,6.738,0,0,1,4.008-4.771,3.564,3.564,0,0,1-1.622-4.071c.795-3.721,3.785-6.139,9.415-6.139,5.312,0,7.539,2.417,6.743,6.139a5.909,5.909,0,0,1-3.435,4.262c1.877.859,2.576,2.418,2.1,4.58-.859,4.071-4.071,6.139-9.924,6.139C365.419,482.121,362.843,480.053,363.7,475.982Zm12.341-.1c.318-1.5-.318-2.067-2.068-2.449l-2.195-.477c-1.654.35-2.767,1.05-3.149,2.767-.382,1.845.477,2.577,3.181,2.577C374.357,478.3,375.693,477.572,376.043,475.886Zm1.336-8.652c.35-1.622-.318-2.386-2.7-2.386-2.131,0-3.372.7-3.722,2.386a1.73,1.73,0,0,0,1.559,2.322l1.876.382C376.17,469.429,377.061,468.761,377.379,467.235Z" transform="translate(-363.539 -461)"/></g></g></g></g></svg>