<svg xmlns="http://www.w3.org/2000/svg" width="81.327" height="81.327" viewBox="0 0 81.327 81.327"><defs><style>.a{fill:#11270a;}.b{fill:none;}.c{fill:#7f9b8e;}.d,.e{stroke:none;}.e{fill:#7b9e95;}</style></defs><g transform="translate(-31.087 -11.087)"><circle class="a" cx="39" cy="39" r="39" transform="translate(33 13)"/><g transform="translate(34.635 14.635)"><g class="b" transform="translate(-5.299 -5.299)"><path class="d" d="M42.413,2.25A40.163,40.163,0,1,0,82.577,42.413,40.165,40.165,0,0,0,42.413,2.25ZM68.788,68.788a37.094,37.094,0,1,1,8-11.853,37.363,37.363,0,0,1-8,11.853Z"/><path class="e" d="M 42.41328048706055 2.25 C 20.23294830322266 2.25 2.25 20.23294830322266 2.25 42.41328048706055 C 2.25 64.59361267089844 20.23294830322266 82.57656097412109 42.41328048706055 82.57656097412109 C 64.59361267089844 82.57656097412109 82.57656097412109 64.59361267089844 82.57656097412109 42.41328048706055 C 82.57656097412109 20.23294830322266 64.59361267089844 2.25 42.41328048706055 2.25 M 42.41328048706055 79.70775604248047 C 37.37692642211914 79.70775604248047 32.49868011474609 78.72087860107422 27.8907470703125 76.785400390625 C 23.44345855712891 74.90345764160156 19.46283721923828 72.21316528320312 16.03811645507812 68.78844451904297 C 12.6134033203125 65.36372375488281 9.923088073730469 61.365234375 8.041160583496094 56.9358024597168 C 6.105667114257812 52.3278694152832 5.118804931640625 47.45216751098633 5.118804931640625 42.41328048706055 C 5.118804931640625 37.37438201904297 6.105667114257812 32.49868011474609 8.041160583496094 27.8907470703125 C 9.923088073730469 23.44345855712891 12.6134033203125 19.46283721923828 16.03811645507812 16.03811645507812 C 19.46283721923828 12.6134033203125 23.4613151550293 9.923088073730469 27.8907470703125 8.041160583496094 C 32.49869155883789 6.105667114257812 37.37438201904297 5.118804931640625 42.41328048706055 5.118804931640625 C 47.45216751098633 5.118804931640625 52.3278694152832 6.105667114257812 56.9358024597168 8.041160583496094 C 61.38309097290039 9.923088073730469 65.36372375488281 12.6134033203125 68.78843688964844 16.03811645507812 C 72.21315765380859 19.46283721923828 74.90345764160156 23.4613151550293 76.78539276123047 27.8907470703125 C 78.72087860107422 32.4808349609375 79.70775604248047 37.37692642211914 79.70775604248047 42.41328048706055 C 79.70775604248047 47.44962310791016 78.72087860107422 52.3278694152832 76.785400390625 56.9358024597168 C 74.90345764160156 61.365234375 72.21316528320312 65.36372375488281 68.78844451904297 68.78843688964844 L 68.78844451904297 68.78844451904297 C 65.36372375488281 72.21316528320312 61.36524963378906 74.90347290039062 56.9358024597168 76.785400390625 C 52.3457145690918 78.72087860107422 47.44962310791016 79.70775604248047 42.41328048706055 79.70775604248047 M 42.41328048706055 1.75 C 47.90224838256836 1.75 53.22743606567383 2.82525634765625 58.24090194702148 4.945899963378906 C 63.08305740356445 6.994094848632812 67.43172454833984 9.926094055175781 71.16609954833984 13.66046142578125 C 74.90046691894531 17.39483642578125 77.83246612548828 21.74350357055664 79.88066101074219 26.58565902709961 C 82.00130462646484 31.59912490844727 83.07656097412109 36.92431259155273 83.07656097412109 42.41328048706055 C 83.07656097412109 47.90224838256836 82.00130462646484 53.22743606567383 79.88066101074219 58.24090194702148 C 77.83246612548828 63.08305740356445 74.90046691894531 67.43172454833984 71.16609954833984 71.16609954833984 C 67.43172454833984 74.90046691894531 63.08305740356445 77.83246612548828 58.24090194702148 79.88066101074219 C 53.22743606567383 82.00130462646484 47.90224838256836 83.07656097412109 42.41328048706055 83.07656097412109 C 36.92431259155273 83.07656097412109 31.59912490844727 82.00130462646484 26.58565902709961 79.88066101074219 C 21.74350357055664 77.83246612548828 17.39483642578125 74.90046691894531 13.66046142578125 71.16609954833984 C 9.926094055175781 67.43172454833984 6.994094848632812 63.08305740356445 4.945899963378906 58.24090194702148 C 2.82525634765625 53.22743606567383 1.75 47.90224838256836 1.75 42.41328048706055 C 1.75 36.92431259155273 2.82525634765625 31.59912490844727 4.945899963378906 26.58565902709961 C 6.994094848632812 21.74350357055664 9.926094055175781 17.39483642578125 13.66046142578125 13.66046142578125 C 17.39483642578125 9.926094055175781 21.74350357055664 6.994094848632812 26.58565902709961 4.945899963378906 C 31.59912490844727 2.82525634765625 36.92431259155273 1.75 42.41328048706055 1.75 Z M 42.41328048706055 79.20775604248047 C 47.38386917114258 79.20775604248047 52.20458984375 78.23774719238281 56.74153518676758 76.32467651367188 C 61.12943649291992 74.46040344238281 65.06407928466797 71.80570983886719 68.43489074707031 68.43489074707031 C 71.80567932128906 65.06410217285156 74.46037292480469 61.12947082519531 76.32521057128906 56.74028015136719 C 78.23765563964844 52.18716812133789 79.20775604248047 47.36623764038086 79.20775604248047 42.41328048706055 C 79.20775604248047 37.44266891479492 78.23774719238281 32.6219482421875 76.32467651367188 28.08501434326172 C 74.46038055419922 23.69711303710938 71.80570220947266 19.76248168945312 68.43488311767578 16.39167022705078 C 65.05109405517578 13.00786590576172 61.11668014526367 10.35327911376953 56.74094772338867 8.501625061035156 C 52.18720245361328 6.588905334472656 47.36625671386719 5.618804931640625 42.41328048706055 5.618804931640625 C 37.46030426025391 5.618804931640625 32.63935852050781 6.588905334472656 28.08438110351562 8.502143859863281 C 23.69713592529297 10.36615753173828 19.76250457763672 13.02084350585938 16.39167022705078 16.39167022705078 C 13.00786590576172 19.77548217773438 10.353271484375 23.70989227294922 8.501625061035156 28.08560180664062 C 6.588905334472656 32.63934707641602 5.618804931640625 37.46029281616211 5.618804931640625 42.41328048706055 C 5.618804931640625 47.36625671386719 6.588905334472656 52.18720245361328 8.502143859863281 56.74216842651367 C 10.36615753173828 61.12942504882812 13.02084350585938 65.06407165527344 16.39167022705078 68.43489074707031 C 19.77544403076172 71.81867218017578 23.70984649658203 74.47325897216797 28.08560180664062 76.32493591308594 C 32.63938140869141 78.23765563964844 37.4603157043457 79.20775604248047 42.41328048706055 79.20775604248047 Z"/></g><path class="c" d="M20.332,7.875c0,1.608-.649,2.912-1.449,2.912s-1.446-1.306-1.446-2.912c.033-1.559.671-2.789,1.447-2.789s1.414,1.23,1.447,2.789Z" transform="translate(18.23 -2.634)"/><path class="c" d="M20.332,32.627c0,1.61-.649,2.914-1.449,2.914s-1.446-1.307-1.446-2.914c.033-1.56.671-2.791,1.447-2.791s1.414,1.231,1.447,2.791Z" transform="translate(18.23 36.291)"/><path class="c" d="M35.46,18.848c0,.8-1.265,1.449-2.826,1.449s-2.821-.65-2.821-1.449c.064-.776,1.309-1.388,2.824-1.388s2.76.612,2.824,1.388Z" transform="translate(36.318 18.262)"/><path class="c" d="M10.705,18.848c0,.8-1.264,1.448-2.824,1.448s-2.819-.65-2.819-1.448c.064-.776,1.308-1.387,2.821-1.387S10.641,18.073,10.705,18.848Z" transform="translate(-2.607 18.262)"/><path class="c" d="M14.144,8.132A1.449,1.449,0,1,1,12.7,6.745a1.449,1.449,0,0,1,1.447,1.388Z" transform="translate(8.498 1.408)"/><path class="c" d="M26.519,29.564a1.449,1.449,0,1,1-1.447-1.387A1.449,1.449,0,0,1,26.519,29.564Z" transform="translate(27.962 35.117)"/><path class="c" d="M31.047,12.661A1.448,1.448,0,1,1,29.6,11.274a1.448,1.448,0,0,1,1.447,1.388Z" transform="translate(35.083 8.531)"/><path class="c" d="M9.616,25.036a1.449,1.449,0,1,1-1.447-1.387,1.448,1.448,0,0,1,1.447,1.387Z" transform="translate(1.376 27.995)"/><path class="c" d="M9.616,12.661a1.449,1.449,0,1,1-1.447-1.387A1.449,1.449,0,0,1,9.616,12.661Z" transform="translate(1.376 8.531)"/><path class="c" d="M31.047,25.036A1.448,1.448,0,1,1,29.6,23.649a1.448,1.448,0,0,1,1.447,1.388Z" transform="translate(35.083 27.995)"/><path class="c" d="M26.519,8.132a1.449,1.449,0,1,1-1.447-1.387,1.448,1.448,0,0,1,1.447,1.387Z" transform="translate(27.962 1.408)"/><path class="c" d="M14.144,29.564A1.449,1.449,0,1,1,12.7,28.177a1.449,1.449,0,0,1,1.447,1.387Z" transform="translate(8.498 35.117)"/></g></g></svg>