<svg xmlns="http://www.w3.org/2000/svg" xmlns:xlink="http://www.w3.org/1999/xlink" width="41" height="40" viewBox="0 0 41 40"><defs><style>.a{fill:url(#a);}.b{fill:#fff;}</style><linearGradient id="a" x1="0.5" x2="0.5" y2="1" gradientUnits="objectBoundingBox"><stop offset="0" stop-color="#2ad931"/><stop offset="1" stop-color="#257402"/></linearGradient></defs><g transform="translate(9.472 9.913)"><rect class="a" width="41" height="40" rx="8" transform="translate(-9.472 -9.913)"/><path class="b" d="M24.7,6.094a8.521,8.521,0,0,1,2.662,13.454l.974.974A9.9,9.9,0,0,0,25.3,4.852a.686.686,0,0,0-.6,1.235Z" transform="translate(-9.009 -3.989)"/><path class="b" d="M19.358,20.554l-2.635-2.635-.391-.391L3.8,5l-.974.967L6.665,9.8H2.686A.686.686,0,0,0,2,10.489V17.35a.686.686,0,0,0,.686.686h4l6.525,5.695a.686.686,0,0,0,1.139-.515V17.487l3.835,3.835c-.117.069-.233.137-.35.2a.687.687,0,0,0,.617,1.228c.254-.13.494-.274.741-.425l1.468,1.468.967-.954-2.23-2.23Z" transform="translate(-2 -4.054)"/><path class="b" d="M22.525,12.028a4.3,4.3,0,0,1,2.134,3.691,4.233,4.233,0,0,1-.974,2.69l.974.974a5.6,5.6,0,0,0,1.372-3.664,5.681,5.681,0,0,0-2.813-4.878.686.686,0,1,0-.686,1.187Z" transform="translate(-8.329 -5.854)"/><path class="b" d="M17.464,4.306a.686.686,0,0,0-1.139-.515l-4.4,3.842,5.544,5.537Z" transform="translate(-5.114 -3.621)"/></g></svg>