<svg xmlns="http://www.w3.org/2000/svg" xmlns:xlink="http://www.w3.org/1999/xlink" width="75" height="60" viewBox="0 0 75 60"><defs><style>.a{fill:url(#a);}.b{fill:url(#b);}.c,.d{fill:#f0f0f0;}.c{font-size:12px;font-family:AvenirNext-Bold, Avenir Next;font-weight:700;}</style><linearGradient id="a" x1="0.923" y1="0.61" x2="-0.454" y2="0.609" gradientUnits="objectBoundingBox"><stop offset="0" stop-color="#005203"/><stop offset="1" stop-color="#257402"/></linearGradient><linearGradient id="b" x1="0.5" x2="0.5" y2="1" gradientUnits="objectBoundingBox"><stop offset="0" stop-color="#2ad931"/><stop offset="1" stop-color="#257402"/></linearGradient></defs><g transform="translate(-731 -311)"><path class="a" d="M0,0H75a0,0,0,0,1,0,0V20A40,40,0,0,1,35,60H5a5,5,0,0,1-5-5V0A0,0,0,0,1,0,0Z" transform="translate(731 311)"/><path class="b" d="M0,0H75a0,0,0,0,1,0,0V14A40,40,0,0,1,35,54H5a5,5,0,0,1-5-5V0A0,0,0,0,1,0,0Z" transform="translate(731 311)"/><text class="c" transform="translate(792 333)"><tspan x="-47.412" y="0">Cashout</tspan></text><path class="d" d="M29.109,15.308,12.053,3.938v6.126H0v10.49H12.053V26.68Z" transform="translate(753 333.103)"/></g></svg>