<svg xmlns="http://www.w3.org/2000/svg" xmlns:xlink="http://www.w3.org/1999/xlink" width="262" height="98" viewBox="0 0 262 98"><defs><style>.a{fill:#ff0019;}.b{fill:none;}.c{opacity:0.8;}.d,.h{fill:#099114;}.e{opacity:0.494;clip-path:url(#a);}.f{clip-path:url(#b);}.g{fill:#f7efbd;}.h{stroke:#f4e7ce;stroke-linecap:round;stroke-width:0.5px;stroke-dasharray:2;}</style><clipPath id="a"><path class="a" d="M14,0H248a14,14,0,0,1,14,14V98a0,0,0,0,1,0,0H0a0,0,0,0,1,0,0V14A14,14,0,0,1,14,0Z"/></clipPath><clipPath id="b"><rect class="b" width="291.422" height="139.212"/></clipPath></defs><g class="c"><path class="d" d="M14,0H248a14,14,0,0,1,14,14V98a0,0,0,0,1,0,0H0a0,0,0,0,1,0,0V14A14,14,0,0,1,14,0Z"/><g class="e"><g class="f" transform="translate(-9.072 -16.706)"><g transform="translate(9.072 7.917)"><rect class="g" width="5.779" height="50.857" transform="translate(30.146 -3.842) rotate(45)"/><rect class="g" width="5.779" height="36.987" transform="translate(33.263 7.203) rotate(45)"/><rect class="g" width="5.779" height="36.987" transform="translate(17.081 -7.917) rotate(45)"/></g><g transform="translate(42.072 7.917)"><rect class="g" width="5.779" height="50.857" transform="translate(30.146 -3.842) rotate(45)"/><rect class="g" width="5.779" height="36.987" transform="translate(33.263 7.203) rotate(45)"/><rect class="g" width="5.779" height="36.987" transform="translate(17.081 -7.917) rotate(45)"/></g><g transform="translate(75.072 7.917)"><rect class="g" width="5.779" height="50.857" transform="translate(30.146 -3.842) rotate(45)"/><rect class="g" width="5.779" height="36.987" transform="translate(33.263 7.203) rotate(45)"/><rect class="g" width="5.779" height="36.987" transform="translate(17.081 -7.917) rotate(45)"/></g><g transform="translate(108.072 7.917)"><rect class="g" width="5.779" height="50.857" transform="translate(30.146 -3.842) rotate(45)"/><rect class="g" width="5.779" height="36.987" transform="translate(33.263 7.203) rotate(45)"/><rect class="g" width="5.779" height="36.987" transform="translate(17.081 -7.917) rotate(45)"/></g><g transform="translate(141.072 7.917)"><rect class="g" width="5.779" height="50.857" transform="translate(30.146 -3.842) rotate(45)"/><rect class="g" width="5.779" height="36.987" transform="translate(33.263 7.203) rotate(45)"/><rect class="g" width="5.779" height="36.987" transform="translate(17.081 -7.917) rotate(45)"/></g><g transform="translate(174.072 7.917)"><rect class="g" width="5.779" height="50.857" transform="translate(30.146 -3.842) rotate(45)"/><rect class="g" width="5.779" height="36.987" transform="translate(33.263 7.203) rotate(45)"/><rect class="g" width="5.779" height="36.987" transform="translate(17.081 -7.917) rotate(45)"/></g><g transform="translate(207.072 7.917)"><rect class="g" width="5.779" height="50.857" transform="translate(30.146 -3.842) rotate(45)"/><rect class="g" width="5.779" height="36.987" transform="translate(33.263 7.203) rotate(45)"/><rect class="g" width="5.779" height="36.987" transform="translate(17.081 -7.917) rotate(45)"/></g><g transform="translate(240.072 7.917)"><rect class="g" width="5.779" height="50.857" transform="translate(30.146 -3.842) rotate(45)"/><rect class="g" width="5.779" height="36.987" transform="translate(33.263 7.203) rotate(45)"/><rect class="g" width="5.779" height="36.987" transform="translate(17.081 -7.917) rotate(45)"/></g><g transform="translate(273.072 7.917)"><rect class="g" width="5.779" height="50.857" transform="translate(30.146 -3.842) rotate(45)"/><rect class="g" width="5.779" height="36.987" transform="translate(33.263 7.203) rotate(45)"/><rect class="g" width="5.779" height="36.987" transform="translate(17.081 -7.917) rotate(45)"/></g><g transform="translate(9.072 73.917)"><rect class="g" width="5.779" height="50.857" transform="translate(30.146 -3.842) rotate(45)"/><rect class="g" width="5.779" height="36.987" transform="translate(33.263 7.203) rotate(45)"/><rect class="g" width="5.779" height="36.987" transform="translate(17.081 -7.917) rotate(45)"/></g><g transform="translate(42.072 73.917)"><rect class="g" width="5.779" height="50.857" transform="translate(30.146 -3.842) rotate(45)"/><rect class="g" width="5.779" height="36.987" transform="translate(33.263 7.203) rotate(45)"/><rect class="g" width="5.779" height="36.987" transform="translate(17.081 -7.917) rotate(45)"/></g><g transform="translate(75.072 73.917)"><rect class="g" width="5.779" height="50.857" transform="translate(30.146 -3.842) rotate(45)"/><rect class="g" width="5.779" height="36.987" transform="translate(33.263 7.203) rotate(45)"/><rect class="g" width="5.779" height="36.987" transform="translate(17.081 -7.917) rotate(45)"/></g><g transform="translate(108.072 73.917)"><rect class="g" width="5.779" height="50.857" transform="translate(30.146 -3.842) rotate(45)"/><rect class="g" width="5.779" height="36.987" transform="translate(33.263 7.203) rotate(45)"/><rect class="g" width="5.779" height="36.987" transform="translate(17.081 -7.917) rotate(45)"/></g><g transform="translate(141.072 73.917)"><rect class="g" width="5.779" height="50.857" transform="translate(30.146 -3.842) rotate(45)"/><rect class="g" width="5.779" height="36.987" transform="translate(33.263 7.203) rotate(45)"/><rect class="g" width="5.779" height="36.987" transform="translate(17.081 -7.917) rotate(45)"/></g><g transform="translate(174.072 73.917)"><rect class="g" width="5.779" height="50.857" transform="translate(30.146 -3.842) rotate(45)"/><rect class="g" width="5.779" height="36.987" transform="translate(33.263 7.203) rotate(45)"/><rect class="g" width="5.779" height="36.987" transform="translate(17.081 -7.917) rotate(45)"/></g><g transform="translate(207.072 73.917)"><rect class="g" width="5.779" height="50.857" transform="translate(30.146 -3.842) rotate(45)"/><rect class="g" width="5.779" height="36.987" transform="translate(33.263 7.203) rotate(45)"/><rect class="g" width="5.779" height="36.987" transform="translate(17.081 -7.917) rotate(45)"/></g><g transform="translate(240.072 73.917)"><rect class="g" width="5.779" height="50.857" transform="translate(30.146 -3.842) rotate(45)"/><rect class="g" width="5.779" height="36.987" transform="translate(33.263 7.203) rotate(45)"/><rect class="g" width="5.779" height="36.987" transform="translate(17.081 -7.917) rotate(45)"/></g><g transform="translate(273.072 73.917)"><rect class="g" width="5.779" height="50.857" transform="translate(30.146 -3.842) rotate(45)"/><rect class="g" width="5.779" height="36.987" transform="translate(33.263 7.203) rotate(45)"/><rect class="g" width="5.779" height="36.987" transform="translate(17.081 -7.917) rotate(45)"/></g><g transform="translate(9.072 139.917)"><rect class="g" width="5.779" height="50.857" transform="translate(30.146 -3.842) rotate(45)"/><rect class="g" width="5.779" height="36.987" transform="translate(33.263 7.203) rotate(45)"/><rect class="g" width="5.779" height="36.987" transform="translate(17.081 -7.917) rotate(45)"/></g><g transform="translate(42.072 139.917)"><rect class="g" width="5.779" height="50.857" transform="translate(30.146 -3.842) rotate(45)"/><rect class="g" width="5.779" height="36.987" transform="translate(33.263 7.203) rotate(45)"/><rect class="g" width="5.779" height="36.987" transform="translate(17.081 -7.917) rotate(45)"/></g><g transform="translate(75.072 139.917)"><rect class="g" width="5.779" height="50.857" transform="translate(30.146 -3.842) rotate(45)"/><rect class="g" width="5.779" height="36.987" transform="translate(33.263 7.203) rotate(45)"/><rect class="g" width="5.779" height="36.987" transform="translate(17.081 -7.917) rotate(45)"/></g><g transform="translate(108.072 139.917)"><rect class="g" width="5.779" height="50.857" transform="translate(30.146 -3.842) rotate(45)"/><rect class="g" width="5.779" height="36.987" transform="translate(33.263 7.203) rotate(45)"/><rect class="g" width="5.779" height="36.987" transform="translate(17.081 -7.917) rotate(45)"/></g><g transform="translate(141.072 139.917)"><rect class="g" width="5.779" height="50.857" transform="translate(30.146 -3.842) rotate(45)"/><rect class="g" width="5.779" height="36.987" transform="translate(33.263 7.203) rotate(45)"/><rect class="g" width="5.779" height="36.987" transform="translate(17.081 -7.917) rotate(45)"/></g><g transform="translate(174.072 139.917)"><rect class="g" width="5.779" height="50.857" transform="translate(30.146 -3.842) rotate(45)"/><rect class="g" width="5.779" height="36.987" transform="translate(33.263 7.203) rotate(45)"/><rect class="g" width="5.779" height="36.987" transform="translate(17.081 -7.917) rotate(45)"/></g><g transform="translate(207.072 139.917)"><rect class="g" width="5.779" height="50.857" transform="translate(30.146 -3.842) rotate(45)"/><rect class="g" width="5.779" height="36.987" transform="translate(33.263 7.203) rotate(45)"/><rect class="g" width="5.779" height="36.987" transform="translate(17.081 -7.917) rotate(45)"/></g><g transform="translate(240.072 139.917)"><rect class="g" width="5.779" height="50.857" transform="translate(30.146 -3.842) rotate(45)"/><rect class="g" width="5.779" height="36.987" transform="translate(33.263 7.203) rotate(45)"/><rect class="g" width="5.779" height="36.987" transform="translate(17.081 -7.917) rotate(45)"/></g><g transform="translate(273.072 139.917)"><rect class="g" width="5.779" height="50.857" transform="translate(30.146 -3.842) rotate(45)"/><rect class="g" width="5.779" height="36.987" transform="translate(33.263 7.203) rotate(45)"/><rect class="g" width="5.779" height="36.987" transform="translate(17.081 -7.917) rotate(45)"/></g></g></g><path class="h" d="M14,0H242a14,14,0,0,1,14,14V92a0,0,0,0,1,0,0H0a0,0,0,0,1,0,0V14A14,14,0,0,1,14,0Z" transform="translate(3 3)"/></g></svg>