<svg xmlns="http://www.w3.org/2000/svg" xmlns:xlink="http://www.w3.org/1999/xlink" width="32" height="98" viewBox="0 0 32 98"><defs><style>.a{fill:#ff0019;}.b{opacity:0.8;}.c,.f{fill:#0246ff;}.d{opacity:0.494;clip-path:url(#a);}.e{fill:#f7efbd;}.f{stroke:#f4e7ce;stroke-linecap:round;stroke-width:0.5px;stroke-dasharray:2;}</style><clipPath id="a"><path class="a" d="M0,0H18A14,14,0,0,1,32,14V98a0,0,0,0,1,0,0H0a0,0,0,0,1,0,0V0A0,0,0,0,1,0,0Z"/></clipPath></defs><g class="b"><path class="c" d="M0,0H18A14,14,0,0,1,32,14V98a0,0,0,0,1,0,0H0a0,0,0,0,1,0,0V0A0,0,0,0,1,0,0Z"/><g class="d"><path class="e" d="M0,0,11.751,5.972,64.3,109.382,52.553,103.41Z" transform="translate(-1.729 109.918) rotate(-135)"/><path class="e" d="M0,0,11.751,5.972,49.972,81.179,38.221,75.207Z" transform="translate(-4.846 76.044) rotate(-135)"/><path class="e" d="M0,0,11.751,5.972,49.972,81.179,38.221,75.207Z" transform="translate(11.336 122.413) rotate(-135)"/></g><path class="f" d="M0,0H12A14,14,0,0,1,26,14V92a0,0,0,0,1,0,0H0a0,0,0,0,1,0,0V0A0,0,0,0,1,0,0Z" transform="translate(3 3)"/></g></svg>