<svg xmlns="http://www.w3.org/2000/svg" xmlns:xlink="http://www.w3.org/1999/xlink" width="41" height="40" viewBox="0 0 41 40"><defs><style>.a{fill:url(#a);}.b{fill:#fff;}</style><linearGradient id="a" x1="0.5" x2="0.5" y2="1" gradientUnits="objectBoundingBox"><stop offset="0" stop-color="#2ad931"/><stop offset="1" stop-color="#257402"/></linearGradient></defs><g transform="translate(9.423 10.092)"><rect class="a" width="41" height="40" rx="8" transform="translate(-9.423 -10.092)"/><path class="b" d="M23.012,20.734a.686.686,0,0,1-.37-1.269,4.261,4.261,0,0,0-.13-7.307.686.686,0,1,1,.686-1.187,5.633,5.633,0,0,1,.165,9.647.686.686,0,0,1-.35.117Z" transform="translate(-8.371 -5.978)"/><path class="b" d="M25.24,22.955a.686.686,0,0,1-.309-1.3A8.535,8.535,0,0,0,24.815,6.29a.686.686,0,1,1,.6-1.235,9.907,9.907,0,0,1,.165,17.839A.686.686,0,0,1,25.24,22.955Z" transform="translate(-9.082 -4.13)"/><path class="b" d="M13.226,3.919,6.873,9.408H2.756a.686.686,0,0,0-.686.686V16.9a.686.686,0,0,0,.686.686H6.742l6.491,5.653a.686.686,0,0,0,1.139-.5V4.413a.686.686,0,0,0-1.146-.494Z" transform="translate(-2.07 -3.742)"/></g></svg>