<svg xmlns="http://www.w3.org/2000/svg" xmlns:xlink="http://www.w3.org/1999/xlink" width="40" height="40" viewBox="0 0 40 40"><defs><style>.a{fill:url(#a);}.b{fill:#00620b;}</style><linearGradient id="a" x1="0.5" x2="0.5" y2="1" gradientUnits="objectBoundingBox"><stop offset="0" stop-color="#fff"/><stop offset="0.565" stop-color="#d3d3d3"/><stop offset="1" stop-color="#b1b1b1"/></linearGradient></defs><g transform="translate(-1175.5 -708)"><rect class="a" width="40" height="40" rx="20" transform="translate(1175.5 708)"/><g transform="translate(1191.919 716.106)"><path class="b" d="M21.058,14.823,15,15.583l-.217,1.006,1.191.22c.778.186.932.466.762,1.241L14.78,27.232c-.513,2.374.278,3.492,2.139,3.492A5.483,5.483,0,0,0,20.8,29.141l.233-1.1a2.933,2.933,0,0,1-1.817.651c-.728,0-.993-.511-.8-1.411Z" transform="translate(-14.627 -6.648)"/><path class="b" d="M21.045,10.522A2.647,2.647,0,1,1,18.4,7.875,2.647,2.647,0,0,1,21.045,10.522Z" transform="translate(-14.428 -7.875)"/></g></g></svg>