<svg xmlns="http://www.w3.org/2000/svg" xmlns:xlink="http://www.w3.org/1999/xlink" width="312" height="78" viewBox="0 0 312 78"><defs><style>.a{fill:#fff;}.b{clip-path:url(#a);}.c{fill:#61a300;}.d{fill:#3b7300;}.e{fill:#295200;}.f{fill:#87bd00;}.g{fill:#1c3b00;}.h{fill:#698c00;}.i{fill:#244d00;}.j{fill:#528c00;}.k{fill:#b5bbc2;}.l{fill:#bfc4ca;}.m{fill:#8f98a2;}.n{fill:#e6e8ea;}.o{fill:#ccd0d5;}.p{fill:#a3aab3;}.q{fill:#525f6f;}.r{fill:#e8eaec;}.s{fill:#1a2b40;}.t{fill:#4d5a6b;}.u{fill:#5c6977;}.v{fill:#576473;}.w{fill:#6b7784;}.x{fill:#87919b;}</style><clipPath id="a"><rect class="a" width="312" height="78" transform="translate(-35.638 0.5)"/></clipPath></defs><g class="b" transform="translate(35.638 -0.5)"><g transform="translate(-35.304 -0.066)"><g transform="translate(0 1.169)"><path class="a" d="M5571.037,2702.189c11.242-3.156,101.489-1.586,137.952,14.834S5812.82,2708,5812.82,2708s32.931-7.667,59.221,6.478c1.031,1.228,1.429,44.74,1.429,44.74l-314.3-.291v-44.713S5559.794,2705.346,5571.037,2702.189Z" transform="translate(-5559.175 -2682.028)"/><g transform="matrix(0.996, 0.087, -0.087, 0.996, 16.796, 0)"><g transform="translate(0 0)"><path class="c" d="M-.006,20.014s64.185-6.007,96.336,40.95c0,0,27.521,4.02,49.7-.08,28.581-5.285,47.5-21.315,58.625-30.07C217.631,20.6,246.124-11.7,298.988,5.592c0,0-14.452-6.874-38.488-5.479s-33.438,12.755-60.867,20.574-54.3,2.828-87.423-5.763C76.83,5.747,27.156,7.4-.006,20.014Z" transform="translate(0 0.276)"/><path class="d" d="M60.383,2.875A58.73,58.73,0,0,1,65.849-.018,45.433,45.433,0,0,0,57.238,2.26c-5.807,3.2-11.837,6.953-19.969,10.3A105.038,105.038,0,0,1,21.99,19.316,67.445,67.445,0,0,1,6.233,22.745c10.07-.6,16.067,11.83-6.247,27.2,11.645-6.688,20.164-15.318,25.989-20.89C32.281,23.025,43.207,8.995,60.383,2.875Z" transform="translate(183.905 0.036)"/><path class="e" d="M89.06,5.3S77.533-1.17,58.372.163C39.251,1.493,31.754,12.173,10,19.567c1.916-.066,3.679.19,4.619,1.124C17.378,23.431-.012,41.42-.012,41.42l0,0C5.7,36.96,10.291,32.5,13.87,29.163,24.211,19.52,46.9-10.967,89.06,5.3Z" transform="translate(209.965 0.204)"/><path class="f" d="M35.593,3.1C30.267,1.52,9.061-2.073,1.984,1.583c-9.062,4.68,15.2,20.3,26.581,36.075,7.862,10.9,20.428,16.7,35.052,12.806s35.838-19.15,16.93-28.17S48.884,7.055,35.593,3.1Z" transform="translate(61.269 7.99)"/><path class="a" d="M-.005,18.949s5.3.247,7.956.188,2.789.154,3.215-.071.693.2,1.388.293,2.3.219,3.2.253a35.262,35.262,0,0,1,5.225.423,12.129,12.129,0,0,0,2.913.691c.419-.009,2.721.1,2.721.1a8.673,8.673,0,0,1,1.388.293c.9.249,9.435,2.11,11.379,2.5a21.519,21.519,0,0,1,2.911.744,2.807,2.807,0,0,1,1.188-.026c.345.154.4.692.814.791a25.362,25.362,0,0,1,2.627.913c1.934.712,14.169,4.917,19.107,7.936s4.239,3.035,5.417,3.332a3.086,3.086,0,0,1,1.916,1.306c.61.634,10.378,7.914,12.744,10.5s5.453,6.783,6.879,8.153a7.441,7.441,0,0,1,1.686,2.012c.335.478,1.014,1.11,1.229.944a4.154,4.154,0,0,1,2.875-.387,94.089,94.089,0,0,0,10.087,1.34c2.513.052,2.788.208,7.6.263s11.668-.15,14.878-.06,13.027-1.206,17.035-2.1,18.729-6.213,23.62-8.586a85.2,85.2,0,0,0,8.2-4.469c2.026-1.177,1.909-.77,3.2-1.932A38.123,38.123,0,0,1,190.97,40c1.8-.687,2.85-.71,3.191-1.608s2.467-1.915,3.652-2.993,6.641-4.839,7.192-5.741,4.668-3.7,5.472-4.288,4.109-2.518,4.809-3.14,2.782-3.662,4.06-4.378,6.186-3.656,6.561-3.948,8.044-4.466,11.39-6,7.873-4.017,10.3-4.556,14.07-2.82,17.8-3.1,6.87-.274,6.87-.274-5.426-.136-6.654.053-2.521.245-3.4.453-3.092.041-3.8.246-4.743.968-5.483,1.173-4.588,1.046-5.539,1.309a33.2,33.2,0,0,0-3.806,1.163c-.463.28-4.189,2.277-5.285,2.706a15.941,15.941,0,0,0-2.65,1.03,16.782,16.782,0,0,1-1.641,1.169c-.569.336-6.1,2.993-6.809,3.468s-2.032,1.366-2.673,1.785-5.679,3.065-6.833,4.277-.148.273-1.435,1.272-1.6,1.977-3.161,2.929-3.369,2.879-4.791,3.719-1.976.691-2.209,1.451-1.214.89-1.934,1.607-3.86,2.636-5.5,4.059c-3.442,2.989-5.918,4.014-6.477,4.027s-3.286,2.446-4.916,3.237-6.041,3.478-7.741,4.27-6.042,3.532-10.574,5.574-14.486,5.607-17.588,6.592A91.354,91.354,0,0,1,139,60.188c-6.389,1.112-6.917.1-11.262.573a121.948,121.948,0,0,1-16.555.1,108.068,108.068,0,0,1-11.13-1.479c-1.877-.282-2.927-.785-3.769-.658s-7.651-9.768-9.915-11.12-3.925-1.855-4.117-2.444a10.963,10.963,0,0,0-4.292-4.152c-2.067-.925-3.877-2.894-5.109-3.73a22.946,22.946,0,0,0-4.669-2.647c-1.864-.714-9.979-5.482-11.228-5.778a52.944,52.944,0,0,1-7.248-2.28c-1.721-.825-3.665-1.213-4.554-1.841s-2.43-.486-4.988-1.346S31,21.43,29.756,20.973s-3.481-.355-5.152-.533-3.168-1.494-5.965-1.378a22.409,22.409,0,0,1-5.094-.157c-1.042-.192-11.938-.167-11.029-.187,1.236-.027-1.019-.031-1.2-.122,0,0,5.456-2.035,10.106-3.379,0,0,7.116-1.493,19.949-3.233s15.666-1.291,19.657-1.622,15.129-.3,20.574-.2a133.32,133.32,0,0,1,18.761,2.025c2.773.694,13.308,1.647,20.919,4.013s17.466,3.874,28.362,6.167,30.281,3.32,33.845,3.241A111.749,111.749,0,0,0,194.236,23.1a220.7,220.7,0,0,0,24.615-7.988c4.669-1.991,10.06-4.753,12.469-5.885s5.6-2.659,5.6-2.659-4.591,1.72-6.714,2.63-7.515,3.726-10.842,5.2-8.4,2.937-14.259,5.008a94.794,94.794,0,0,1-16.267,4.46c-5.053.813-13.877,1.6-18.263,1.159s-15.645.023-29.25-2.75-35.11-7.636-39.4-8.889S82.587,10.04,69.048,9.693s-26.785.04-38.5,1.7S6.172,15.576-.005,18.949Z" transform="translate(3.312 -0.001)"/><path class="a" d="M2.715.044S.6-.274.168.79-.158,4.145,4.191,6.432a42.829,42.829,0,0,0,14.986,4.288,40.2,40.2,0,0,0,7.752-.138s-.476-.576-.692-.62a9.811,9.811,0,0,0-2.188-.015A22.338,22.338,0,0,1,18.384,9.8c-1.241-.392-3.42-.232-4.691-.523A56.15,56.15,0,0,1,6.55,6.718,20.9,20.9,0,0,1,1.178,2.881C.626,2.094-.724-.551,3.524.31Z" transform="translate(148.908 24.922)"/><path class="a" d="M6.411,9.181s3.9-.11,5.779-2.008S14,1.279,7.1.551,0,.2,0,.2L5.8,0S7.1.193,7.984.4,9.271.823,9.8.885a4.484,4.484,0,0,1,1.856.409,2.865,2.865,0,0,1,2.035,3.133c-.319,1.508.335,2.989-2.653,4.188A13.115,13.115,0,0,1,7.113,9.8Z" transform="translate(172.668 25.821)"/><path class="a" d="M1.086,1.607s9.483.129,11.881,5.627l1.9-.053A42.408,42.408,0,0,0,9.747,2.914c-1.939-1.19-2.4-1.679-4.716-1.745A17.324,17.324,0,0,1,0,0Z" transform="translate(94.518 55.637)"/><path class="a" d="M.514,0s2.8,1.24.689,3.038l-.971.069s.765-.27.82-.85S1.666,1.206,1.21.889A5.193,5.193,0,0,0,0,.346Z" transform="translate(8.359 16.298)"/><path class="a" d="M.61.307S-.541.743.318,1.174s2.311,1,2.811.529.94-.734.295-.969S3.169-.017,2.572,0A16.434,16.434,0,0,0,.61.307Z" transform="translate(163.789 28.151)"/><path class="g" d="M0,.434a9.094,9.094,0,0,0,1.3.635,4.475,4.475,0,0,0,1.368-.034c.387-.148.408.1.784.326s1.559-.039,1.559-.039-.787-.211,1.007.159,2.568,1.11,3.561.763A9.142,9.142,0,0,1,11.45,1.6a2.957,2.957,0,0,1,.923.253c.378.174.214.179,2.512.121a17.47,17.47,0,0,1,4.479.164,12.23,12.23,0,0,0,4.531.255,1.951,1.951,0,0,1,1.9.412,3.986,3.986,0,0,1,.035.736s.959-1.129.968-1.451a2.349,2.349,0,0,1,.35-.838,1.738,1.738,0,0,0-.039-.6,2.276,2.276,0,0,1-1.6.593c-1.094.027-2.727-.254-3.549-.187s-1.1.073-3.45.225-3.164-.243-5.025-.2S11.964.8,11.964.8a10.321,10.321,0,0,1-2.142.376A28.338,28.338,0,0,1,5.575.5C5.086.375,5.7-.1,4.658.017s-1.427.22-2.141.33A23.565,23.565,0,0,1,0,.434Z" transform="translate(98.817 63.357)"/><path class="g" d="M0,3.269a4.955,4.955,0,0,1,2.516-.626,8.932,8.932,0,0,0,1.976-.331A8.846,8.846,0,0,1,6.87,2.251a13.273,13.273,0,0,0,1.525-.32,16.208,16.208,0,0,1,2.581.039,1.036,1.036,0,0,0,1.078-.484c.211-.251,2.382-.2,3.785-.553S17.013-.08,16.56,0a7.959,7.959,0,0,1-1.978.4c-.448-.094-1.051-.57-1.1-.077S13.34.892,13.012.9A7.837,7.837,0,0,0,11.7.969c-.207.075-.777-.086-.986.1a3.45,3.45,0,0,1-1.893.294,2.672,2.672,0,0,0-1.887.083,21.99,21.99,0,0,1-2.718.491c-.784.2-.891-.4-1.058-.289s.152.452-.794.582A8.49,8.49,0,0,1,.192,2.14Z" transform="translate(131.274 63.227)"/><path class="f" d="M.812.011C-.377-.028-.359.82,1.525.943A22.472,22.472,0,0,0,5.181.751c1.026-.025,1.8.125,2.5.04S7.032.57,5.973.291,4.262-.142,3.72.177s-.3.618-1.075.3A8.791,8.791,0,0,0,.812.011Z" transform="translate(113.273 65.96)"/><path class="f" d="M0,.617C.491.411.548-.284.943.128s.381,1.03.541,1.1.8.4.639.406S.873,1.363.43,1.26,0,.617,0,.617Z" transform="translate(109.956 65.003)"/><path class="f" d="M5.16.5A8.367,8.367,0,0,1,7.239.936c.12.1.035.245-.7.193S3.553.82,3.309.756,3.353.65,1.8.549,0,.455,0,.349.742.19,1.316.175,2.307-.1,2.59.038A2.553,2.553,0,0,0,4.053.527,4.826,4.826,0,0,1,5.16.5Z" transform="translate(97.34 64.357)"/><path class="g" d="M2.394,63.627a11.9,11.9,0,0,0,2.627-1.1.9.9,0,0,1,1.247.018c.426.381,1.2-.432,1.206-.6s.342-.743,1.537-.836,1.59-.782,2.683-1.154,3.234-1.564,3.391-1.288.526.773.526.773a1.494,1.494,0,0,1,.8-1.658c1.1-.71,4.621-2.959,5.334-3.319s2.534-1.825,3.023-1.84.654-.132.935-.592.841-1.265,1.442-1.452S29,49.962,29,49.962a8.837,8.837,0,0,0,1-1.157,57.1,57.1,0,0,1,4.484-4.194,10.9,10.9,0,0,0,1.611-1.74,9.588,9.588,0,0,1,2.054-2.2,17.746,17.746,0,0,1,2.458-.808s-.535-.321.086-1.467a5.633,5.633,0,0,1,2.083-2.275,2.787,2.787,0,0,1,2.048-.655,4.022,4.022,0,0,1,.782-2.305c.749-.784,3.83-4.047,4.252-4.736A6.926,6.926,0,0,1,51.2,26.774a3.525,3.525,0,0,0,.963-1.255c.255-.515,2.271-1.549,2.821-2.537s.106-1.144.6-1.5a20.866,20.866,0,0,0,2.939-2.33c1.247-1.221,1.157-.838,1.708-1.869s3.633-2.436,3.763-2.82a4.585,4.585,0,0,1,1.262-1.94c.661-.485,4.268-2.963,4.351-3.021a16.213,16.213,0,0,1,1.57-1.09c.962-.593,1.814-1.1,2.143-1.277a11.9,11.9,0,0,1,2.438-1.118c.188.107-.242-.1.363-.49A23.894,23.894,0,0,1,79.6,4.07c1.011-.341,4.291-1.485,4.839-1.783a12.547,12.547,0,0,1,1.612-.557c.629-.245,4.713-.934,5.094-1s3.45-.275,5.3-.53a39.282,39.282,0,0,1,5.964.154c.217-.007-.538-.209-1.269-.271s-3.279-.124-3.93-.1a23.707,23.707,0,0,0-3.449.191c-.682.19-3.235.326-3.808.484s-2.013.259-2.641.476-4.147,1.142-4.856,1.3-.142.286-2.216.885-1.636.417-1.636.417-.523.03-.529.3a.51.51,0,0,1-.54.524c-.366.011-.4-.347-.608-.108s.222.1-.458.5-1.622.684-1.77.942-.366-.01-.47.12.072.42-.174.534-.326.01-.572.1-.251.324-.682.507-2.468,1.259-2.86,1.5,0,.085-.539.481a8.966,8.966,0,0,1-1.157.838c-.763.467-.952.748-2.292,1.57s-1.367,1.141-1.985,1.477-.229.239-1.136.816a16.371,16.371,0,0,0-1.968,1.624,29.053,29.053,0,0,1-2.468,2.21c-.431.182-.386.92-.794,1s-1,.136-1,.305.3.286-.035.7-.393.308-.669.823-.145.11-.607.8a13.906,13.906,0,0,1-1.532,2.2c-.6.589-.677.274-1.494,1.356a12.186,12.186,0,0,1-1.835,2.084c-.643.569-.425-.092-.588-.087s-.352.285-.459.521A2.309,2.309,0,0,1,48.152,29.3c-1.171.522-1.52.7-1.52.7a.528.528,0,0,1,.05.505c-.128.257-2.544,2.867-2.676,3.336s-.736.192-.736.192a8.7,8.7,0,0,0-.428.985c-.045.213-.668.781-.96,1.128a.917.917,0,0,1-.859.2s.265.921-.232,1.317A17.229,17.229,0,0,0,38.6,39.5c-.5.607-1.811.985-2.432,1.469a9.84,9.84,0,0,0-1.405,1.015c-.871.787-1.235.672-1.235.672s-.112-.461-.386.941-2.085.487-2.349,1.382-.451.183-.793.912-.665.654-.918,1.042a18.432,18.432,0,0,0-.877,2.323c-.116.342-.211-.275-.7-.316s-.621,1.146-.842,1.321a5.007,5.007,0,0,0-1.711,1.348c-1.331,1.337-1.213.882-2.029,1.02a2.682,2.682,0,0,1-1.247-.018,4.153,4.153,0,0,1-.731,1.205c-.387.35.1.391-2.144,1.306s-1.931,1.468-2.8,1.325-.874.309-1.428.833a24.029,24.029,0,0,1-3.295,1.848c-1.7.954-4.114,2.1-5.427,2.646s-5.87,1.758-5.87,1.758Z" transform="translate(177.676 0.235)"/><path class="h" d="M0,.525C.8.174.858-.181,1.53.1s.371.369.42.62a.667.667,0,0,0,.343.4A12.559,12.559,0,0,1,.725.859C.131.7,0,.525,0,.525Z" transform="translate(125.731 66.331)"/><path class="f" d="M.282,1.239C1.545,1.023,2.568.607,3.252.59s.564.377,1.475.032A2.648,2.648,0,0,1,6.235.446,11.484,11.484,0,0,0,9.058.168C9.8-.1,9.69.037,10.7.012s1.219.429.53.631a15,15,0,0,1-2.313.633c-.382-.014-.364-.727-.364-.727s.067.573-.648.729a15.686,15.686,0,0,1-1.924.37c-.52.036-.852-.876-.852-.876a1.154,1.154,0,0,1-1.14.742c-.93.023-.8-.785-1.3-.45a5.547,5.547,0,0,1-1.608.823C.7,1.942-.556,1.927.282,1.239Z" transform="translate(131.059 65.433)"/><path class="f" d="M.346.081A7.21,7.21,0,0,0,1.515.014c.615-.052,1.677.046,1,.173S1.38.47.783.612-.1.672.03.451A1.486,1.486,0,0,1,.346.081Z" transform="translate(137.156 66.13)"/><path class="f" d="M0,.013A1.99,1.99,0,0,1,.9.1C.978.116.709.252.423.278A.46.46,0,0,1,0,.013Z" transform="translate(134.349 66.414)"/><path class="f" d="M.016.493C.486.423.4.709,1.2.385S2.147,0,2.147,0a7.142,7.142,0,0,1-1.2.713C.413.935.224,1.167.087.944A.607.607,0,0,1,.016.493Z" transform="translate(130.623 66.229)"/><path class="f" d="M0,.477A.888.888,0,0,1,1.048.042,7.406,7.406,0,0,1,2.1.422,4.617,4.617,0,0,0,.74.338,4.809,4.809,0,0,1,0,.477Z" transform="translate(117.273 66.153)"/><path class="f" d="M.118,0C.112.235-.111.739.072.864s.362.382.551.245S.118,0,.118,0Z" transform="translate(110.478 65.173)"/><path class="f" d="M0,.177A1.749,1.749,0,0,1,1.175.051c.746.136,1.574.425.941.305S0,.177,0,.177Z" transform="translate(102.5 65.085)"/><path class="h" d="M2.335.331a6.128,6.128,0,0,0-2.309,1.2s-.227.993.634.742A19.714,19.714,0,0,0,3.332,1.215c.865-.4,1.329-1.1.843-1.2A6.216,6.216,0,0,0,2.335.331Z" transform="translate(149.84 63.44)"/><path class="h" d="M0,2.065C.031,1.6.129.951.474,1.034s.375.545.782.608.736-.039.642-.332-.24-1.049.038-.7.388.823.618.631S2.715.455,2.92.45s.9.142,1.1-.011A12.1,12.1,0,0,1,6.158.029C7.02-.124,5.62.321,4.877.638s-2.5,1.2-3.078,1.4A3.259,3.259,0,0,1,.568,2.2,1.386,1.386,0,0,1,0,2.065Z" transform="translate(157.747 61.212)"/><path class="i" d="M0,.4A9.058,9.058,0,0,1,1.914,0c.626-.017.3.092.782.3s-.045.725-.751.695S.847,1.354.5,1.014A3.269,3.269,0,0,1,0,.4Z" transform="translate(145.184 64.911)"/><path class="g" d="M.092.636C-.354.585.946.216,1.222.06s.353.04.543.06S.961.736.092.636Z" transform="translate(131.717 66.862)"/><path class="i" d="M0,.493C1.482.383,1.988-.018,3.16.172a11.264,11.264,0,0,0,3.071-.1A1.033,1.033,0,0,1,6.943.052c.49.107.7.4-.147.316A22.1,22.1,0,0,0,3.755.413C2.575.477,0,.493,0,.493Z" transform="translate(116.303 66.84)"/><path class="f" d="M1.889,0C1.1.148.641-.017.525.316s-.019.812-.455.9S1.354.826,1.959.479,1.889,0,1.889,0Z" transform="translate(151.275 63.874)"/><path class="f" d="M0,.647C.031.5.035.328.388.367S.827.282,1.114.225,2.224,0,2.224,0,1.177.444.71.6A1,1,0,0,1,0,.647Z" transform="translate(160.922 61.546)"/><path class="f" d="M.2,0C.148.536-.231.534.213.662A1.343,1.343,0,0,0,1.2.7C1.6.572.973.59.786.493A4.007,4.007,0,0,1,.2,0Z" transform="translate(157.283 62.517)"/><path class="f" d="M3.076,0C2.584.244,1.615.092,1.2.643s.011.668-.32.959-1.126.8-.8.767a18.83,18.83,0,0,0,2-1.186c.355-.164.789-.228.8-.588A1.049,1.049,0,0,1,3.076,0Z" transform="translate(179.057 48.483)"/><path class="f" d="M0,3.928c.886-.979.923-1.418,1.878-1.935A10.739,10.739,0,0,0,3.963.413c.386-.346.581-.61.544-.222s-.094.57-.919,1.263S2.843,2.2,1.91,2.894A7.878,7.878,0,0,1,0,3.928Z" transform="translate(186.121 42.781)"/><path class="f" d="M0,.55C.15.266.177-.014,1.014,0A11.9,11.9,0,0,1,2.256.116c.082-.021-.043.076-.845.34S.361.8.177.844,0,.55,0,.55Z" transform="translate(141.228 65.66)"/><path class="f" d="M2.276,0C1.9.319.851.349.716.932A3.74,3.74,0,0,1,0,2.189,14.007,14.007,0,0,0,2.465.535C2.8.062,2.276,0,2.276,0Z" transform="translate(174.697 51.234)"/><path class="f" d="M2.483,0A5.7,5.7,0,0,0,.356,1.224,1.227,1.227,0,0,0,.046,2.435c-.005.233,1.525-1.4,2.019-1.8S2.483,0,2.483,0Z" transform="translate(198.759 35.307)"/><path class="f" d="M.13,0C.121.393-.246.835.295,1.487A8.012,8.012,0,0,1,1.25,3.107c.305.541.4,1.519.452,1.086s1.091-.856.238-1.734A7.393,7.393,0,0,1,.7,1C.434.58.13,0,.13,0Z" transform="translate(93.156 60.384)"/><path class="f" d="M0,0A5.422,5.422,0,0,0,.155,1.4c.176.9.387,1.419.584,1.361s.4-.183.281-.888A2.456,2.456,0,0,0,.576.679,2.407,2.407,0,0,0,0,0Z" transform="translate(90.488 56.762)"/><path class="c" d="M.072,0C.044,1.216-.31,1.03.853,2.408S1.721,4.5,2.214,3.818,1.884,2.574,1.5,2,1,1.031.694.648A5.378,5.378,0,0,0,.072,0Z" transform="translate(86.659 50.521)"/><path class="c" d="M0,0C.637.37,1.136,1.442,1.527,1.974s.264.769.748.794.974-.261-.336-1.155S1.705,1.232,1.15.821,0,0,0,0Z" transform="translate(82.018 46.704)"/><path class="c" d="M.025,0c.069.5-.268,1.133.4,1.7s.226.692,1.342,1.243.74,1.143,1.466,1.123.848-.063.777-.488-.388-.649-1.067-.94S2.514,2.18,1.4,1.552A2.89,2.89,0,0,1,.025,0Z" transform="translate(70.46 37.134)"/><path class="c" d="M.03,0C-.095.118.145.3,1.221,1.188s1.5.263,1.619.3-.176.577.182.873.066.647,1.042.62,1.628-.084.747-.631S3.7,1.386,3.051,1.175A16.734,16.734,0,0,1,1.322.384,8.027,8.027,0,0,0,.03,0Z" transform="translate(62.67 33.39)"/><path class="j" d="M0,0C.321.169,1.67,1.509,2.26,1.773s.988.584,1.159.222.42-.6-.653-1.027S0,0,0,0Z" transform="translate(34.396 25.669)"/><path class="j" d="M1.774.365C1.019.158.266-.149.1.083s-.177.586.446.67a4.2,4.2,0,0,1,2,.424,17.577,17.577,0,0,0,1.93,1.008,3.842,3.842,0,0,0,.672.285s-.2-.829-.844-1.013A6.194,6.194,0,0,1,2.768.817,6.678,6.678,0,0,0,1.774.365Z" transform="translate(53.935 28)"/></g></g></g><g transform="translate(111.042)"><path class="a" d="M475.8,315.475a34.141,34.141,0,0,1,1.373-4.3,36.84,36.84,0,0,1,2.074-4.293,38.485,38.485,0,0,1,2.8-4.164,40.383,40.383,0,0,1,3.534-3.9,41.537,41.537,0,0,1,4.244-3.513,42.5,42.5,0,0,1,4.9-3,46.494,46.494,0,0,1,11.386-4.115,55.2,55.2,0,0,1,6.277-1.011,63.763,63.763,0,0,1,6.527-.3c2.2.04,4.441.137,6.685.4,1.128.1,2.246.284,3.38.438.567.08,1.127.192,1.694.288s1.138.188,1.7.316c1.187.24,2.377.51,3.566.8A25.729,25.729,0,0,0,528,291.1a28.154,28.154,0,0,0-3.533,1.807c-1.823-.263-3.635-.456-5.425-.572a52.575,52.575,0,0,0-11.512.562c-.925.131-1.822.344-2.723.522-.886.227-1.777.424-2.635.7-.871.238-1.707.547-2.548.83-.821.326-1.649.626-2.436,1-.8.338-1.564.741-2.331,1.119-.744.416-1.494.814-2.2,1.267a33.52,33.52,0,0,0-4,2.876,32.264,32.264,0,0,0-3.423,3.276,31.084,31.084,0,0,0-2.809,3.571,30.068,30.068,0,0,0-5.208,15.167,28.8,28.8,0,0,0,2.206,12.777,31.492,31.492,0,0,0,5.114,8.28,38.316,38.316,0,0,0,4.319,4.315c.528.448.947.766,1.219.99l.241.193-.7-.566c-.565-.479-1.41-1.191-2.428-2.223a26,26,0,0,1-3.392-4.149,18.513,18.513,0,0,1-1.6-3.037,13.005,13.005,0,0,1-.938-3.811,10.948,10.948,0,0,1,.053-2.165,9.2,9.2,0,0,1,3.674-6.157,14.068,14.068,0,0,1,4.984-2.347,22.916,22.916,0,0,1,5.908-.7,41.357,41.357,0,0,1,12.831,2.363,66.286,66.286,0,0,1,7,2.846c.349.475.719.935,1.106,1.383q.344.45.7.9a68.451,68.451,0,0,0-8.987-4.031,47.518,47.518,0,0,0-6.271-1.807,34.508,34.508,0,0,0-6.087-.778,23.023,23.023,0,0,0-5.692.483,13.848,13.848,0,0,0-4.825,2.02,9.157,9.157,0,0,0-3.1,3.537,8.958,8.958,0,0,0-.84,4.156,12.446,12.446,0,0,0,.749,3.766,17.3,17.3,0,0,0,1.475,3.078,25.806,25.806,0,0,0,3.279,4.29c1,1.079,1.843,1.83,2.4,2.339l.841.727.028.023-.009-.006.009.007-.011-.009-.417-.281c-.283-.194-.716-.474-1.272-.867a38.108,38.108,0,0,1-4.616-3.917l-.726-.735-.727-.813c-.513-.547-.981-1.18-1.505-1.822a33.1,33.1,0,0,1-2.905-4.59A30.309,30.309,0,0,1,474.9,323.7,31.7,31.7,0,0,1,475.8,315.475Z" transform="translate(-474.892 -286.871)"/><path class="a" d="M493.9,324.418c-.026.174-.049.32-.067.437l-.055.353.018-.345c.022-.229.009-.578.078-1.03a18.834,18.834,0,0,1,.963-3.975,27.669,27.669,0,0,1,3.035-6.031,34.9,34.9,0,0,1,6.193-7.048,38.721,38.721,0,0,1,10.212-6.257,45.817,45.817,0,0,1,14.055-3.219,59.02,59.02,0,0,1,9.139.12c-.417.3-.821.621-1.216.946a30.776,30.776,0,0,0-2.915,2.588c-1.534-.124-3.044-.19-4.521-.185-.3,0-.6-.015-.9,0l-.89.045-1.758.088-1.717.189c-.567.065-1.133.113-1.682.226l-1.641.287c-.273.041-.539.1-.8.17l-.79.191-.783.188c-.261.06-.52.122-.77.207l-1.5.463c-.5.139-.974.334-1.449.512s-.947.35-1.405.54l-1.341.608-.659.3-.631.335-1.243.657c-.4.233-.785.478-1.172.711-.786.451-1.486.982-2.2,1.465a33.623,33.623,0,0,0-6.577,6.292,28.291,28.291,0,0,0-3.544,5.678,19.075,19.075,0,0,0-1.354,3.894A4.634,4.634,0,0,0,493.9,324.418Z" transform="translate(-489.845 -290.1)"/><path class="a" d="M507.178,334.809a14.475,14.475,0,0,1,.434-1.473,20.257,20.257,0,0,1,.767-2,24.3,24.3,0,0,1,3.173-5.164,28.923,28.923,0,0,1,6.2-5.691,37.3,37.3,0,0,1,9.615-4.664,45.239,45.239,0,0,1,5.982-1.492c1.052-.214,2.136-.338,3.24-.486.552-.076,1.113-.1,1.677-.158s1.135-.106,1.711-.118c.233-.013.469-.019.7-.027a23.661,23.661,0,0,0-.965,2.625l-.178,0c-.271,0-.54.017-.808.025l-1.6.055-1.564.125-.772.062-.76.1-1.5.192-1.459.26-.721.128-.7.162-1.39.319a37.807,37.807,0,0,0-9.512,3.85,28.925,28.925,0,0,0-6.427,5.093,24.623,24.623,0,0,0-3.546,4.868c-.359.731-.718,1.364-.93,1.947-.233.575-.45,1.055-.562,1.459l-.391,1.212Z" transform="translate(-502.365 -295.226)"/></g><g transform="translate(146.416 2.946)"><path class="k" d="M235.9,267.336l.288-.032.171-.021c.086-.012.172-.023.257-.036l.176-.026.245-.041.175-.031.239-.044.17-.034.24-.051.159-.033.256-.06.133-.031c.126-.031.251-.063.374-.1l.072-.02.3-.081.134-.04.223-.066.142-.045.2-.063.142-.047c.066-.021.129-.042.192-.064l.136-.046.186-.066.127-.045.189-.07c.036-.013.072-.026.107-.04l.214-.083.068-.026.27-.108,0,0c-3.5.584-12.213-5.272-13.52-16.324l-3.5,1.224-.895,3.693,2.336,6.228c3.436,4.251,9.4,6.68,9.4,6.68.148-.01.3-.023.441-.037Z" transform="translate(-219.819 -220.571)"/><path class="l" d="M227.754,192.52a21.771,21.771,0,0,0-7.843,4.868s-2.414,2.678-3.7,10.274l.314,3.816,2.88,2.671.441.181s1.556-1.03,3.4-2.077C222.034,204.241,224.971,196.045,227.754,192.52Z" transform="translate(-215.223 -184.235)"/><path class="a" d="M218.355,208.9l.065.383a24.213,24.213,0,0,0,14.285,10.654l.986.1,1.006.307s6.067,1.195,10.914.247l.324-.15s11.563-1.513,17.387-12.155l.854-.918a26.95,26.95,0,0,0,3.11-9.775l-.051-.393.319-1.1s.6-10.452-6.108-17.531l-.425-.163-.158-.341a23.734,23.734,0,0,0-11.381-7.073l-.383.053-.291-.258s-8.538-2.678-16.832.354l-.23.164-.539.066a23.746,23.746,0,0,0-11.832,8.905l-.2.562-.387.3s-4.141,4.466-4.438,14.206l.059.326A24.6,24.6,0,0,0,218.355,208.9Z" transform="translate(-214.058 -169.698)"/><path class="m" d="M315.655,203.94a35.192,35.192,0,0,0-3.538-9.739l-.685-.868-5.085-3.618-4.1.156-4.809,5.633v0l-1.825,2.03,3.368,11.434L310,212.293l.465.07,2.617-1.288.265-1.979C315.632,205.963,315.655,203.94,315.655,203.94Zm-2.091,3.132c-.631,1.222-2.353,3.922-3.89,4.058a36.68,36.68,0,0,1-5.637-1.562c-2.422-.747-3.918-1.207-4.233-2.334-.167-.6-2.143-6.6-2.6-8.08a2.658,2.658,0,0,1,.7-3.011l0-.006c1.108-1.208,2.559-2.95,3.1-3.538.962-1.044,1.067-2.214,4.653-1.127a10.778,10.778,0,0,1,4.871,2.546,13.386,13.386,0,0,1,4,10.02A8.019,8.019,0,0,1,313.563,207.073Z" transform="translate(-264.814 -182.448)"/><path class="l" d="M341.3,198.727a49.62,49.62,0,0,1,2.374,6.866,6.154,6.154,0,0,0,.518,1.764,10.621,10.621,0,0,1,1.409,5.416l.319-1.1s.6-10.452-6.108-17.531c0,0,.249,1.407.306,2.085A15.912,15.912,0,0,0,341.3,198.727Z" transform="translate(-292.42 -185.269)"/><path class="n" d="M298.523,263.407a29.629,29.629,0,0,1-10.113,6.923l-3.7,1.132-4.4-1.54-2.022-2.259s-.291-8.452,0-8.834,5.095-2.909,8.543-5.334C286.83,253.495,286.321,261.421,298.523,263.407Z" transform="translate(-253.913 -223.075)"/><path class="o" d="M315.876,276a5.224,5.224,0,0,1-3.543,1.993,2.769,2.769,0,0,0-1.288.783,22.958,22.958,0,0,1-8.467,5.832,2,2,0,0,0-1.167.978,7.85,7.85,0,0,1-2.921,2.569S310.052,286.64,315.876,276Z" transform="translate(-266.612 -237.408)"/><path class="a" d="M248.368,179.18s4.063,5,4.406,5.536,2.411-.03,5.806,0a58,58,0,0,0,7.214-.127,64.443,64.443,0,0,0,5.168-5.024c.838-.875,1.016-1.541.393-2.323a29.357,29.357,0,0,0-4.8-4.469,8.706,8.706,0,0,0-3.588-.66,38.872,38.872,0,0,0-8.36.748,9.594,9.594,0,0,0-5.974,3.848A16.056,16.056,0,0,0,248.368,179.18Z" transform="translate(-235.306 -171.229)"/><path class="p" d="M274.311,170.68s.224-.439,3.446.109c0,0-8.538-2.678-16.832.354l-.23.164,2.124-.213A26.853,26.853,0,0,1,274.311,170.68Z" transform="translate(-243.006 -169.698)"/><path class="q" d="M214.987,212.979a26.353,26.353,0,0,1,3.472-10.667l.33-1.085s-4.141,4.466-4.438,14.206l.059.326A8.652,8.652,0,0,1,214.987,212.979Z" transform="translate(-214.058 -189.78)"/><path class="r" d="M220.224,214.37s5.147-3.406,7.811-4.129a39.321,39.321,0,0,1,3.929-11.461,57.126,57.126,0,0,0-3.836-6.219,21.779,21.779,0,0,0-7.843,4.867s-2.413,2.678-3.7,10.275l.314,3.815,2.88,2.671Z" transform="translate(-215.457 -184.26)"/><path class="o" d="M242.776,254.627c-2.031-.971-10.376-7.52-10.376-7.52l-7.559,2.13-.895,3.692,2.337,6.228c3.436,4.251,9.4,6.68,9.4,6.68a20.581,20.581,0,0,0,7.973-2.356Z" transform="translate(-220.052 -219.006)"/><path class="q" d="M238.19,286.87l1.5.152c-2.224-.441-4.365-2.907-4.365-2.907-6.321-3.1-8.661-6.815-8.661-6.815l-.089-.24-.276-.226-1.7-1.952-.374.561c.1.154.2.306.3.458A21.693,21.693,0,0,0,238.19,286.87Z" transform="translate(-220.226 -236.697)"/><path d="M253.4,209.647a38.208,38.208,0,0,0-3.558,10.756s-.15.624.725,1.489,8.243,6.453,8.711,6.706a1.2,1.2,0,0,0,1.409-.1c.624-.365,8.611-5.858,9.23-6.343a2.209,2.209,0,0,0,.622-2.47c-.3-1.194-2.412-7.822-2.944-9.017a2.547,2.547,0,0,0-2.719-1.919c-1.743-.039-7.668.081-9.164.158S253.745,209.043,253.4,209.647Z" transform="translate(-236.218 -194.569)"/><path d="M302.25,172.835s-.843.077-.94.071c-.428-.026-2.426-.128-2.586-.118a1.153,1.153,0,0,0-.586.343c-.093.127.417.231,1,.726a54.488,54.488,0,0,1,4.162,4.324,2.621,2.621,0,0,1,.4,1.068,3.121,3.121,0,0,1,2.068.192c1.472.473,5.6,1.77,7.534,3.62,0,0,.166-.006.207-.39a7.027,7.027,0,0,0-.159-2.293l-.274-.9A21.331,21.331,0,0,0,302.25,172.835Z" transform="translate(-266.385 -171.666)"/><path d="M341.471,236.451l-.051-.393a9.393,9.393,0,0,0-.693-2.433A8.534,8.534,0,0,0,339,230.7a17.4,17.4,0,0,1-5.577,7.7,3.068,3.068,0,0,1,.563,1.563c.045.895-.136,6.72-.866,8.678a2.168,2.168,0,0,0,1.27-.066,7.649,7.649,0,0,0,3.116-1.431l.854-.918A26.951,26.951,0,0,0,341.471,236.451Z" transform="translate(-288.243 -208.555)"/><path class="k" d="M236.1,267.358l.289-.032.17-.022.258-.036.176-.026.245-.041.176-.031.239-.044.171-.034.239-.05.159-.033.256-.06.131-.032c.127-.031.25-.062.374-.1l.072-.02.3-.081.134-.039c.075-.021.149-.043.222-.066l.143-.044.2-.064.142-.046c.064-.021.128-.042.191-.064l.136-.046.187-.067.126-.045.19-.07.107-.04.214-.083.068-.027.27-.109h0c-3.5.584-12.212-5.273-13.52-16.323l-3.5,1.224-.895,3.693,2.336,6.228c3.435,4.251,9.4,6.68,9.4,6.68.148-.01.294-.023.44-.037Z" transform="translate(-219.945 -220.585)"/><path class="l" d="M227.955,192.541a21.773,21.773,0,0,0-7.843,4.868s-2.414,2.678-3.7,10.275l.314,3.816,2.88,2.67.44.181s1.556-1.03,3.4-2.076C222.236,204.262,225.173,196.066,227.955,192.541Z" transform="translate(-215.349 -184.248)"/><path d="M271.1,299.21l2.36-2.295.872-1.726c-6.657-.217-10.121-2.667-10.121-2.667l-.393.577a23.658,23.658,0,0,1-8.2,2.025c1.117,2.338,5.259,3.978,5.259,3.978A30.681,30.681,0,0,0,271.1,299.21Z" transform="translate(-239.836 -247.934)"/><path d="M218.471,240.619a15.959,15.959,0,0,1-3.729-7,6.635,6.635,0,0,0-1.164,3.351,20.1,20.1,0,0,0,3.444,12.035,16.53,16.53,0,0,0,2.9,1.769A18.126,18.126,0,0,1,218.471,240.619Z" transform="translate(-213.573 -210.417)"/><path d="M226.642,182.447l-.1,2.164s4.344-3.578,7.2-4.226a2.9,2.9,0,0,1,1,.044,2.568,2.568,0,0,1,.234-.855,23.665,23.665,0,0,1,6.122-5.545s-1.144-.056-1.732-.021l-1.214-.071A21.509,21.509,0,0,0,226.642,182.447Z" transform="translate(-221.673 -172.398)"/><path class="q" d="M303.278,285.772c-1.9.094-1.23-.839-.75-1.148a2,2,0,0,0-1.117.959,7.85,7.85,0,0,1-2.921,2.569S310.052,286.64,315.876,276C313.31,280.3,305.7,285.651,303.278,285.772Z" transform="translate(-266.612 -237.408)"/><path class="s" d="M260.96,212.484s-1.825,5.73-.085,10.151,4.486,6.982,6.128,6.645,7.867-4.158,8.721-6.9Z" transform="translate(-242.648 -196.951)"/><path class="t" d="M274.511,212.33a2.2,2.2,0,0,0-2.345-1.654c-1.5-.034-6.611.07-7.9.137-1.182.06-1.617.107-1.913.515.427,1.864,2.761,8.279,14.764,9.894a2.7,2.7,0,0,0-.067-1.118C276.794,219.075,274.969,213.36,274.511,212.33Z" transform="translate(-244.04 -195.795)"/><path class="t" d="M341.174,233.106s.975,8.887-5.028,15.95c0,0,.955-7.094.056-8.828A17.146,17.146,0,0,0,341.174,233.106Z" transform="translate(-290.132 -210.087)"/><path class="t" d="M305.614,178.115a29.2,29.2,0,0,0-4.587-4.4,3.941,3.941,0,0,0-.437-.183l.348-.164,2.754.207s1.85,4.989,10.857,8.177l.237.816a21.8,21.8,0,0,0-8.767-3.582A1.149,1.149,0,0,0,305.614,178.115Z" transform="translate(-267.924 -172.039)"/><path class="a" d="M272.982,210.467s6.518-.026,7.545,1.932c.915,1.744,3.161,7.426,3.161,7.426s-2.064-7.353-2.36-8.143a2.311,2.311,0,0,0-2.49-1.451C277.312,210.239,272.982,210.467,272.982,210.467Z" transform="translate(-250.68 -195.516)"/><path class="a" d="M304.727,176.587s2.6,2.752,2.875,3.11.922,1.135.727,1.556c0,0,.141-.162.645-.127a7.807,7.807,0,0,1,1.181.282c1.006.277,3.92,1.317,3.92,1.317s-1.228-.594-1.9-.84A14.622,14.622,0,0,1,309,180.177C308.441,179.734,304.727,176.587,304.727,176.587Z" transform="translate(-270.508 -174.086)"/><path class="a" d="M340.862,233.106s-1.595,4.814-2.267,6.345c-.526,1.2-2.333,4.557-2.333,4.557a13.061,13.061,0,0,0-.254-3.272,1.273,1.273,0,0,0-.362-.594A19.624,19.624,0,0,0,340.862,233.106Z" transform="translate(-289.82 -210.087)"/><path class="t" d="M239.428,174.647a13.025,13.025,0,0,0-7.187,6.442,12.953,12.953,0,0,0-4.126,2.139A23.393,23.393,0,0,1,239.428,174.647Z" transform="translate(-222.656 -172.85)"/><path class="u" d="M215.142,237.134a22.727,22.727,0,0,0,3.286,14.318,16.937,16.937,0,0,1-1.008-6.949C217.6,242.4,215.4,240.493,215.142,237.134Z" transform="translate(-214.465 -212.653)"/><path class="v" d="M261.784,303.6s1.042,1.938,6.289,2.357a27.314,27.314,0,0,0,6.45-.106c.786-.168,1.534-1.248,2.121-2.154a4.081,4.081,0,0,1-3.3,1.805C270.968,305.66,264.324,305.53,261.784,303.6Z" transform="translate(-243.686 -254.992)"/><path class="w" d="M278.243,275.77s.227,5.05.306,5.469,1.247,1.067,2.028,1.386a31.539,31.539,0,0,0,7.415,1.657s-7.408-1.456-8.419-3.5A18.485,18.485,0,0,1,278.243,275.77Z" transform="translate(-253.966 -237.263)"/><path class="w" d="M306.77,287.283a31.5,31.5,0,0,0,9.683-6.76l-.934-.15A30.409,30.409,0,0,1,306.77,287.283Z" transform="translate(-271.784 -240.196)"/><path class="q" d="M344.077,207.141c.033.07.069.141.112.215a10.621,10.621,0,0,1,1.409,5.416l.319-1.1s.6-10.452-6.108-17.531c0,0,3.449,4.446,4.349,9.011C344.88,206.816,344.539,207.519,344.077,207.141Z" transform="translate(-292.42 -185.269)"/><path class="a" d="M216.267,234.439a5.87,5.87,0,0,0,.9,4.052c1.716,3.077,2.654,2.744,2.654,2.744S216.733,238.094,216.267,234.439Z" transform="translate(-215.212 -210.936)"/><path class="x" d="M266.793,294.894a2.255,2.255,0,0,0-1.132.281,20.77,20.77,0,0,1-6.7,1.676,23.254,23.254,0,0,0,6.967-.883,1.815,1.815,0,0,1,1.387.106,26.635,26.635,0,0,0,8.208.863A18.049,18.049,0,0,1,266.793,294.894Z" transform="translate(-241.922 -249.431)"/><path class="a" d="M250.81,174.537a35.385,35.385,0,0,0-3.4,2.518c-1.256,1.132-2.749,2.2-2.595,3.507a2.6,2.6,0,0,0-1.908.07S244.93,177.019,250.81,174.537Z" transform="translate(-231.898 -172.78)"/></g></g></g></svg>